<svg xmlns="http://www.w3.org/2000/svg" width="249" height="60" viewBox="0 0 249 60" fill="none">
    <g id="coupon-full-logo" clip-path="url(#clip0_62_2)">
        <g id="coupon-logo">
            <path id="logo-bg" d="M0 8C0 3.58172 3.58172 0 8 0H52C56.4183 0 60 3.58172 60 8V52C60 56.4183 56.4183 60 52 60H8C3.58172 60 0 56.4183 0 52V8Z" fill="#ff665a "/>
            <path id="coupon" d="M42.9446 30.2282L45.2812 32.5648L53 24.8461L47.8792 19.7283C47.0352 20.4431 45.96 20.8396 44.8458 20.8396C43.6023 20.8396 42.41 20.347 41.53 19.467C40.653 18.587 40.1574 17.3946 40.1574 16.1512C40.1574 15.037 40.5539 13.9648 41.2717 13.1208L36.1509 8L28.4352 15.7187L30.7718 18.0524C30.922 18.2026 30.922 18.4458 30.7718 18.596C30.6216 18.7462 30.3784 18.7462 30.2282 18.596L27.8915 16.2594L8 36.1509L13.1208 41.2717C13.9648 40.5569 15.037 40.1604 16.1512 40.1574C17.3946 40.1574 18.587 40.653 19.467 41.533C20.347 42.41 20.8396 43.6023 20.8396 44.8458C20.8396 45.96 20.4431 47.0352 19.7283 47.8792L24.8461 53L44.7376 33.1085L42.401 30.7718C42.2508 30.6216 42.2508 30.3784 42.401 30.2282C42.5512 30.078 42.7944 30.078 42.9446 30.2282ZM35.6974 23.5246C35.5472 23.6748 35.3039 23.6748 35.1538 23.5246L32.5468 20.9176C32.3966 20.7675 32.3966 20.5242 32.5468 20.374C32.697 20.2239 32.9403 20.2239 33.0904 20.374L35.6974 22.981C35.8476 23.1311 35.8476 23.3744 35.6974 23.5246ZM37.4754 25.2996C37.6256 25.1494 37.8689 25.1494 38.016 25.2996L40.626 27.9096C40.7761 28.0597 40.7761 28.303 40.626 28.4532C40.4758 28.6003 40.2325 28.6003 40.0824 28.4532L37.4754 25.8432C37.3252 25.6931 37.3252 25.4498 37.4754 25.2996Z" fill="#fff"/>
        </g>
        <g id="coupon-name">
            <path id="c" d="M88.6351 12C80.9704 12 75 17.2846 75 26.6436C75 35.7606 80.6477 40.9646 88.2721 40.9646C95.3317 40.9646 100.132 37.2936 100.778 31.0004L100.818 30.597H94.4845L94.4038 31.0004C93.7584 34.3084 91.7817 36.285 88.5141 36.285C84.7221 36.285 81.6562 33.2595 81.6562 26.2806C81.6562 20.1085 84.5204 16.6795 88.5544 16.6795C91.9027 16.6795 93.8794 18.4142 94.5249 21.6414L94.6055 22.0448H100.939L100.899 21.6414C100.334 16.1551 96.3402 12 88.6351 12Z" fill="#ffff"/>
            <path id="o" d="M114.518 18.3335C107.378 18.3335 103.182 22.9323 103.182 29.6288C103.182 36.3254 107.378 40.9646 114.518 40.9646C121.618 40.9646 125.854 36.3254 125.854 29.6288C125.854 22.9323 121.618 18.3335 114.518 18.3335ZM114.518 36.6078C111.492 36.6078 109.677 34.1067 109.677 29.6288C109.677 25.151 111.492 22.6903 114.518 22.6903C117.503 22.6903 119.319 25.151 119.319 29.6288C119.319 34.1067 117.503 36.6078 114.518 36.6078Z" fill="#ffff"/>
            <path id="u" d="M149.787 18.8982H143.494V30.3953C143.494 34.3487 141.8 36.5674 139.218 36.5674C136.757 36.5674 135.628 35.2765 135.345 33.0981C135.224 32.0089 135.184 30.8391 135.184 30.1533V18.8982H128.891V31.5249C128.891 33.2595 128.931 34.4294 129.092 35.5186C129.576 38.4634 132.239 40.9646 136.676 40.9646C138.693 40.9646 140.226 40.5612 141.679 39.593L143.494 36.7288V40.3998H149.787V18.8982Z" fill="#ffff"/>
            <path id="p" d="M168.059 18.3335C165.88 18.3335 163.742 18.8176 162.532 19.7454L160.918 22.1255V18.8982H154.585V48.3066H160.918V37.576L162.33 39.835C163.419 40.5208 165.557 40.9646 167.332 40.9646C172.859 40.9646 177.579 36.9305 177.579 29.1851C177.579 22.8516 173.989 18.3335 168.059 18.3335ZM165.84 36.6078C163.419 36.6078 160.918 34.9941 160.918 30.355V29.3868C160.918 24.4652 163.137 22.6903 166.042 22.6903C169.027 22.6903 171.084 25.3527 171.084 29.5885C171.084 34.268 168.906 36.6078 165.84 36.6078Z" fill="#ffff"/>
            <path id="o_2" d="M191.023 18.3335C183.883 18.3335 179.688 22.9323 179.688 29.6288C179.688 36.3254 183.883 40.9646 191.023 40.9646C198.123 40.9646 202.359 36.3254 202.359 29.6288C202.359 22.9323 198.123 18.3335 191.023 18.3335ZM191.023 36.6078C187.998 36.6078 186.183 34.1067 186.183 29.6288C186.183 25.151 187.998 22.6903 191.023 22.6903C194.009 22.6903 195.824 25.151 195.824 29.6288C195.824 34.1067 194.009 36.6078 191.023 36.6078Z" fill="#ffff"/>
            <path id="n" d="M226.494 24.2635C226.01 20.5119 223.388 18.3335 218.87 18.3335C216.853 18.3335 215.32 18.7369 213.867 19.7051L212.093 22.2869V18.8982H205.759V40.3998H212.093V30.4357C212.093 24.9493 213.948 22.6903 216.449 22.6903C218.91 22.6903 220.12 24.0618 220.282 26.2402C220.362 27.3294 220.362 28.4186 220.362 29.2254V40.3998H226.696V28.2573C226.696 26.5226 226.655 25.3527 226.494 24.2635Z" fill="#ffff"/>
            <path id="s" d="M239.438 18.3335C234.032 18.3335 230.482 20.9153 230.482 25.1107C230.482 28.7817 233.104 30.597 237.138 31.6055C240.93 32.493 242.302 33.3402 242.302 34.8731C242.302 36.2447 241.092 36.8902 239.559 36.8902C237.784 36.8902 236.332 35.801 235.888 33.7839H229.635C230.2 38.6248 234.032 40.9646 239.518 40.9646C244.561 40.9646 248.635 38.8668 248.635 34.389C248.635 30.355 245.973 28.6203 241.818 27.5715C237.986 26.6033 236.816 25.7965 236.816 24.3442C236.816 23.2147 237.663 22.3675 239.034 22.3675C240.608 22.3675 241.535 23.3761 241.899 25.151H248.151C247.627 21.238 244.642 18.3335 239.438 18.3335Z" fill="#ffff"/>
        </g>
    </g>
    <defs>
        <clipPath id="clip0_62_2">
            <rect width="249" height="60" fill="white"/>
        </clipPath>
    </defs>
</svg>