<svg xmlns="http://www.w3.org/2000/svg" xmlns:xlink="http://www.w3.org/1999/xlink" id="visual" viewBox="0 0 1362 600" width="1362" height="600" version="1.1"><rect x="0" y="0" width="1362" height="600" fill="#ffffff"/><defs><linearGradient id="grad1_0" x1="55.9%" y1="0%" x2="100%" y2="100%"><stop offset="4.599999999999998%" stop-color="#ffffff" stop-opacity="1"/><stop offset="95.39999999999999%" stop-color="#ffffff" stop-opacity="1"/></linearGradient></defs><defs><linearGradient id="grad2_0" x1="0%" y1="0%" x2="44.1%" y2="100%"><stop offset="4.599999999999998%" stop-color="#ffffff" stop-opacity="1"/><stop offset="95.39999999999999%" stop-color="#ffffff" stop-opacity="1"/></linearGradient></defs><g transform="translate(1362, 0)"><path d="M0 390C-62 369.8 -124.1 349.5 -184.5 319.6C-244.9 289.6 -303.8 249.9 -337.7 195C-371.7 140.1 -380.9 70.1 -390 0L0 0Z" fill="#fff1e2"/></g><g transform="translate(0, 600)"><path d="M0 -390C68 -379.7 136 -369.3 195 -337.7C254 -306.2 304.1 -253.3 335.2 -193.5C366.2 -133.7 378.1 -66.8 390 0L0 0Z" fill="#fff1e2"/></g></svg>