<svg xmlns="http://www.w3.org/2000/svg" version="1.1" xmlns:xlink="http://www.w3.org/1999/xlink" xmlns:svgjs="http://svgjs.dev/svgjs" width="1440" height="560" preserveAspectRatio="none" viewBox="0 0 1440 560">
    <g mask="url(&quot;#SvgjsMask1016&quot;)" fill="none">
        <path d="M658.48 234.94L668.9 234.94L668.9 245.36L658.48 245.36z" stroke="rgba(0, 110, 108, 1)"></path>
        <path d="M1164.56 388.01L1165.43 388.01L1165.43 389.03L1164.56 389.03z" stroke="rgba(1, 47, 46, 1)"></path>
        <path d="M250.32 327.35L255.98 327.35L255.98 333.01L250.32 333.01z" fill="rgba(0, 110, 108, 0.5803921568627451)"></path>
        <path d="M1052.49 347.48 a33.82 33.82 0 1 0 67.64 0 a33.82 33.82 0 1 0 -67.64 0z" stroke="rgba(0, 110, 108, 0.58)"></path>
        <path d="M1210.86 164.34a45.1 45.1 0 1 0-88.11-19.29z" fill="rgba(0, 110, 108, 0.58)"></path>
        <path d="M1432.3 111.65a17.65 17.65 0 1 0-14.71 32.09z" stroke="rgba(255, 102, 90, 1)"></path>
        <path d="M392.36-24.48a38.04 38.04 0 1 0-49.48 57.79z" stroke="rgba(234, 19, 2, 1)"></path>
        <path d="M-38.15 172.95a43 43 0 1 0 83.52-20.52z" stroke="rgba(0, 110, 108, 0.58)"></path>
        <path d="M217.17 287.45 a3.35 3.35 0 1 0 6.7 0 a3.35 3.35 0 1 0 -6.7 0z" stroke="rgba(234, 19, 2, 1)"></path>
        <path d="M776.43 414.37 a35.37 35.37 0 1 0 70.74 0 a35.37 35.37 0 1 0 -70.74 0z" stroke="rgba(1, 47, 46, 1)"></path>
        <path d="M1416.92 408.85L1456.1 408.85L1456.1 448.03L1416.92 448.03z" stroke="rgba(1, 47, 46, 1)"></path>
        <path d="M1077.17 63.66a47.83 47.83 0 1 0-43.45 85.22z" stroke="rgba(255, 102, 90, 1)"></path>
        <path d="M191.48 340.74a54.83 54.83 0 1 0-9.51-109.24z" fill="rgba(1, 47, 46, 1)"></path>
        <path d="M1316.9 452.85L1328.4 452.85L1328.4 464.35L1316.9 464.35z" fill="rgba(0, 110, 108, 1)"></path>
        <path d="M260.89 183.05L275.94 183.05L275.94 205.66L260.89 205.66z" fill="rgba(1, 47, 46, 1)"></path>
        <path d="M253.45 279.52L265.82 279.52L265.82 291.89L253.45 291.89z" stroke="rgba(0, 110, 108, 0.5803921568627451)"></path>
        <path d="M28.93 186.72L78.42 186.72L78.42 236.21L28.93 236.21z" stroke="rgba(234, 19, 2, 1)"></path>
        <path d="M1115.7 238.78L1148.87 238.78L1148.87 260.62L1115.7 260.62z" stroke="rgba(234, 19, 2, 1)"></path>
        <path d="M45.1 323.73 a36 36 0 1 0 72 0 a36 36 0 1 0 -72 0z" stroke="rgba(0, 110, 108, 1)"></path>
        <path d="M779.61 481.89 a21.15 21.15 0 1 0 42.3 0 a21.15 21.15 0 1 0 -42.3 0z" stroke="rgba(0, 110, 108, 0.58)"></path>
        <path d="M99.35 544.46 a45.14 45.14 0 1 0 90.28 0 a45.14 45.14 0 1 0 -90.28 0z" stroke="rgba(255, 102, 90, 1)"></path>
        <path d="M240.3 342.59a22.18 22.18 0 1 0 38.1 22.73z" fill="rgba(0, 110, 108, 1)"></path>
        <path d="M233.47 261.49a32.07 32.07 0 1 0-46.18-44.52z" stroke="rgba(1, 47, 46, 1)"></path>
        <path d="M871.03 187.47L895.82 187.47L895.82 212.26L871.03 212.26z" fill="rgba(0, 110, 108, 0.5803921568627451)"></path>
        <path d="M53.45 22.73 a46.07 46.07 0 1 0 92.14 0 a46.07 46.07 0 1 0 -92.14 0z" fill="rgba(0, 110, 108, 0.5803921568627451)"></path>
        <path d="M854.92 550.13L887.58 550.13L887.58 582.79L854.92 582.79z" stroke="rgba(0, 110, 108, 1)"></path>
        <path d="M1000.53 422.49a41.48 41.48 0 1 0 77.34-30.02z" stroke="rgba(255, 102, 90, 1)"></path>
        <path d="M44.98 282.71 a37.74 37.74 0 1 0 75.48 0 a37.74 37.74 0 1 0 -75.48 0z" fill="rgba(234, 19, 2, 1)"></path>
        <path d="M145.48 319.76L146.78 319.76L146.78 347.94L145.48 347.94z" fill="rgba(1, 47, 46, 1)"></path>
        <path d="M239.02 173.43L260.05 173.43L260.05 194.46L239.02 194.46z" stroke="rgba(0, 110, 108, 0.58)"></path>
        <path d="M1094.83 519.07a33 33 0 1 0 32.78-57.28z" stroke="rgba(234, 19, 2, 1)"></path>
        <path d="M1033.33 188.25L1089.03 188.25L1089.03 188.9L1033.33 188.9z" fill="rgba(234, 19, 2, 1)"></path>
        <path d="M91.78 385.81 a16.8 16.8 0 1 0 33.6 0 a16.8 16.8 0 1 0 -33.6 0z" fill="rgba(0, 110, 108, 0.58)"></path>
    </g>
    <defs>
        <mask id="SvgjsMask1016">
            <rect width="1440" height="560" fill="#ffffff"></rect>
        </mask>
    </defs>
</svg>