<svg xmlns="http://www.w3.org/2000/svg" version="1.1" xmlns:xlink="http://www.w3.org/1999/xlink" xmlns:svgjs="http://svgjs.dev/svgjs" width="1440" height="560" preserveAspectRatio="none" viewBox="0 0 1440 560">
    <g mask="url(&quot;#SvgjsMask1119&quot;)" fill="none">
        <rect width="1440" height="560" x="0" y="0" fill="rgba(249, 250, 253, 1)"></rect>
        <path d="M0,365.63C67.355,364.586,115.3,304.001,172.38,268.229C230.241,231.968,305.078,214.228,337.493,154.128C370.382,93.149,364.035,16.815,343.701,-49.417C324.923,-110.582,265.672,-146.033,229.201,-198.604C186.901,-259.578,182.99,-359.904,112.406,-382.819C42.27,-405.588,-24.299,-337.855,-88.611,-301.781C-139.944,-272.987,-186.789,-239.699,-224.016,-194.111C-260.377,-149.584,-295.86,-100.459,-299.84,-43.11C-303.714,12.702,-265.657,59.912,-245.263,112.008C-223.448,167.733,-217.449,230.606,-175.848,273.624C-128.909,322.162,-67.514,366.676,0,365.63" fill="#d5d3ffa3"></path>
        <path d="M1440 1195.675C1558.337 1201.6 1675.456 1140.703 1759.562 1057.248 1836.8229999999999 980.585 1844.115 863.55 1878.716 760.355 1909.344 669.01 1958.548 582.582 1950.92 486.541 1943.028 387.178 1909.133 284.498 1835.577 217.231 1764.522 152.25099999999998 1657.771 160.094 1565.156 133.75799999999998 1473.517 107.69900000000001 1388.761 52.09800000000001 1294.146 63.26799999999997 1191.586 75.37599999999998 1096.104 125.86099999999999 1022.0799999999999 197.87099999999998 944.169 273.662 895.543 372.606 868.055 477.767 838.096 592.381 805.259 719.71 857.939 825.818 910.334 931.352 1040.914 963.056 1140.3609999999999 1026.247 1239.2069999999999 1089.056 1323.033 1189.819 1440 1195.675" fill="#9a97f3"></path>
    </g>
    <defs>
        <mask id="SvgjsMask1119">
            <rect width="1440" height="560" fill="#ffffff"></rect>
        </mask>
    </defs>
</svg>