<svg xmlns="http://www.w3.org/2000/svg" viewBox="0 0 458.72 416.23"><defs><style>.cls-1{fill:#dedede;}.cls-2{fill:#22bf9a;}.cls-3{fill:#f4f0ff;}.cls-4{fill:#2dd6aa;}.cls-5{fill:#001c15;}.cls-6{fill:#e8c84a;}.cls-7{fill:#ffbb8e;}.cls-8{fill:#ffe786;}.cls-9{fill:#eaa27a;}.cls-10{fill:#002c21;}.cls-11{fill:#e28e60;}.cls-12{fill:#241f3f;}.cls-13{fill:#0c4437;}.cls-14{fill:#ffdc51;}.cls-15{fill:#fff;}.cls-16{fill:#ffc278;}.cls-17{fill:#178269;}</style></defs><g id="Layer_2" data-name="Layer 2"><g id="OBJECTS"><path class="cls-1" d="M19.18,278.29c6.71-19.67,25-33.08,45.68-39.38,5.39-1.64,11.17-2.38,16-5.18C92.47,227.05,96,212.2,96.33,199.19c1.84-72.75,74.42-82.58,88.35-81.3,55.27,5.11,47.83,48,80.13,72,20.86,15.48,53.58-9.09,76.67,3,19.59,10.23,19.52,39.19,37.43,51.95,12.86,9.15,22.79-3.48,44.67,16,28.16,25.1,35.75,94.3-3.26,133.92L57.18,396.32C43.81,394.06-7.19,355.62,19.18,278.29Z"/><path class="cls-2" d="M332.92,362.56a356.37,356.37,0,0,1,38.5-53,51.06,51.06,0,0,0,10.73,18.89c2.1-6.58-6.67-16.4-3.66-22.61,1.27-2.6,45.95-27.55,80.23-33.45-2,25.09-7,49.22-18.3,74.39-4.43-2.58-12.08-1.88-16.51-4.46,3.07,7,8.88,10,11,14.07-17.38,19.5-42.53,40.26-50.71,43.24-17.1,6.24-35.64,2-52.3-3.56-8.89-3-11.08-3.54-8.39-12.83A90.47,90.47,0,0,1,332.92,362.56Z"/><path class="cls-3" d="M344.87,398.31a393.22,393.22,0,0,1,96.05-106.45c1-.77,0-2.51-1-1.72A395.77,395.77,0,0,0,343.14,397.3c-.68,1.1,1.05,2.11,1.73,1Z"/><path class="cls-3" d="M345.93,358a34,34,0,0,1,8,20c0,.49.44,1.08,1,1a202.16,202.16,0,0,1,38.65-1.23c1.29.08,1.28-1.92,0-2-11.74-.75-23.11.13-34.81.76-2.63.14-2.54.38-3.17-2a70,70,0,0,0-1.81-7.08,36.91,36.91,0,0,0-6.46-10.86c-.83-1-2.24.44-1.42,1.42Z"/><path class="cls-3" d="M366.43,332.84a56.41,56.41,0,0,1,7.38,21.88,1,1,0,0,0,1,1,243.61,243.61,0,0,1,31.5,1.39c1.27.14,1.26-1.86,0-2-5.23-.57-10.47-1-15.73-1.24-2.62-.11-5.25-.19-7.88-.21-1.61,0-5.19.68-6.5-.31-1.84-1.37-2.13-8.06-3-10.5a59.46,59.46,0,0,0-5.08-11,1,1,0,0,0-1.73,1Z"/><path class="cls-3" d="M392.78,308.72a61.06,61.06,0,0,1,4.92,18.43,1,1,0,0,0,1.26,1,297.4,297.4,0,0,1,35.73-8c1.27-.2.73-2.13-.53-1.93a296.54,296.54,0,0,0-35.73,8l1.27,1a64.27,64.27,0,0,0-5.19-19.44c-.52-1.18-2.25-.16-1.73,1Z"/><path class="cls-4" d="M297.63,232c1.27-13.84,3.21-28,9.67-40.28s18.34-22.6,32.2-23.62c13.63-1,29,7.33,36.25,18.93s6.85,25.91,5.36,39.48c-1.58,14.4-6.59,28.17-11.56,41.78-14.64,40.11-28.16,69.19-52.8,104-25.37,35.89-54.5,31-40.32,12.69C304.63,337,292.75,285.48,297.63,232Z"/><path class="cls-3" d="M285.62,401.74c14.66-21.79,24.59-47.05,33.44-71.64,11.2-31.08,20.29-63.15,26-95.72,2.72-15.63,4.67-31.47,4.72-47.35a1,1,0,0,0-2,0c-.1,30.25-6.44,60.49-14.12,89.61a575.05,575.05,0,0,1-30.8,88.65c-5.47,12.21-11.45,24.32-18.93,35.44-.72,1.07,1,2.07,1.73,1Z"/><path class="cls-3" d="M319.75,192.93c7.37,13.23,14.24,26.9,24.63,38.08a1,1,0,0,0,1.21.16c10.44-5.91,21.92-9.6,31.78-16.62,1-.74,0-2.48-1-1.73A112.32,112.32,0,0,1,360.2,222c-4.32,2.11-9.18,5.25-13.83,6.52-1.72.47-.43.64-1.73-.15-1.08-.65-2.53-2.91-3.31-3.89a111.66,111.66,0,0,1-7.71-11.11c-4.33-7-8.14-14.26-12.14-21.42-.63-1.13-2.35-.12-1.73,1Z"/><path class="cls-3" d="M305.54,234.29c10.77,8.35,19.42,19.39,28.92,29.08.66.67,1.71,2.19,2.7,2.45,2.38.62,7.42-3.37,9.44-4.49a116.27,116.27,0,0,0,25.18-18.67,1,1,0,0,0-1.42-1.42A112.22,112.22,0,0,1,347,258.78c-2.05,1.17-8,5.4-9.67,4.67-1.41-.59-3.11-3.18-4.15-4.28-8.42-8.91-16.54-18.75-26.27-26.29-1-.78-2.43.62-1.41,1.41Z"/><path class="cls-4" d="M79,385.15c-13.58-5.24-42.25-17.49-34-26.23A18.49,18.49,0,0,1,57.8,356.2c2.4-3-2.21-6.47-5.8-7.74-9.59-3.39-46.37-15-36.5-25.44,3.23-3.87,16.42-2.64,15.79-3.2C20.49,310,14.44,304,6,291c-5.36-8.24-10-24.62-.61-27.51,6-.13,10.78,4.84,14.17,9.78s9,13.85,15,19.54c-.27-4.43-2.53-27.89,10.18-22.54C52.69,273.62,56.26,297,63,305.64c.9,1.15,2.36,2.4,3.63,1.69.79-.44,1-1.43,1.43-2.24,2.31-4.91,10.27-3.83,13.51.52s3.34,10.18,4,15.56,2.64,11.37,7.61,13.53c.71-3.11,1.5-6.37,3.65-8.72s6.15-3.35,8.55-1.25a9.11,9.11,0,0,1,2.25,4c8.41,23.64,25.53,53.51,35.29,75.7C141,402.93,89.59,389.25,79,385.15Z"/><path class="cls-3" d="M10.67,282.35c37.24,47.41,84.59,85.49,131.55,122.76,1,.79,2.43-.61,1.42-1.41-47-37.27-94.31-75.35-131.56-122.76-.79-1-2.2.41-1.41,1.41Z"/><path class="cls-3" d="M25.8,329.64a144,144,0,0,0,32.12,3.7,1,1,0,0,0,1-1.27C54,319.4,48.47,306,46.47,292.55c-.19-1.27-2.12-.73-1.93.53,2,13.5,7.49,26.85,12.42,39.52l1-1.26a141.67,141.67,0,0,1-31.59-3.63c-1.25-.29-1.79,1.64-.53,1.93Z"/><path class="cls-3" d="M56,365.8c6.79.73,13.55,1.71,20.38,2,6,.29,12.8.59,18.29-2.18a1,1,0,0,0,.35-1.37c-8.21-14.76-12.21-31.65-18.94-47.11-.51-1.18-2.24-.16-1.73,1,6.73,15.47,10.73,32.34,19,47.12l.36-1.37c-5.83,2.94-13.57,2.19-19.86,1.75-6-.41-11.87-1.25-17.8-1.88-1.28-.14-1.27,1.86,0,2Z"/><path class="cls-2" d="M166.18,359c-11-7-21.87-12-32.88-19-14.67-9.29-106.13-61.64-99.18-138.8,1.23-13.66,8.94-30,22.23-33.36,39.33-10,39.25,39.69,41.32,50.43,4.75,24.58,17.59,47,33.45,66.37s34.75,36,53.44,52.65c4.08,3.64,8.52,8.15,8,13.58a17.68,17.68,0,0,1-1.91,5.64C185.73,366.8,173.79,363.78,166.18,359Z"/><path class="cls-3" d="M57.83,180.49a97.57,97.57,0,0,0,5.87,42.94,223.82,223.82,0,0,0,15.61,33.3A247.08,247.08,0,0,0,134,321.87a291.52,291.52,0,0,0,45.14,31.28,1,1,0,0,0,1-1.73c-49.44-28-91.12-70.1-112.47-123.32-2.49-6.23-5-12.67-6.49-19.23-2-9.27-2-19-1.31-28.38.1-1.29-1.9-1.28-2,0Z"/><path class="cls-3" d="M39.85,199.67c6.92,6.88,14,13.21,22.37,18.29a1,1,0,0,0,1.47-.59,77.13,77.13,0,0,1,14.17-26.79c.82-1-.59-2.4-1.42-1.42a79.8,79.8,0,0,0-14.68,27.67l1.47-.59c-8.21-5-15.18-11.23-22-18a1,1,0,0,0-1.41,1.41Z"/><path class="cls-3" d="M44.75,234.83c6.2,3,12.32,6.2,18.51,9.25,2.91,1.44,5.81,2.88,8.78,4.18,1.12.49,2.7,1.51,4,1.36a1.06,1.06,0,0,0,1-.74c2.49-10.34,5.13-20.78,8.88-30.75.46-1.21-1.48-1.73-1.92-.53-2.52,6.68-4.43,13.58-6.27,20.47q-1.07,4-2.06,8c-.16.63-.31,1.27-.47,1.9,0,.15,1.06.13.14-.54-1.54-1.11-4-1.7-5.75-2.53-2.8-1.33-5.58-2.71-8.36-4.09-5.14-2.56-10.24-5.2-15.41-7.71-1.15-.57-2.17,1.16-1,1.72Z"/><path class="cls-3" d="M58.77,267.25c11.1,4.79,22.55,9.18,34.32,12a1,1,0,0,0,1.23-.7c2.65-9.91,3.78-20.08,4.45-30.3.08-1.28-1.92-1.28-2,0-.66,10-1.77,20-4.38,29.77l1.23-.7a209.35,209.35,0,0,1-33.84-11.81c-1.17-.5-2.19,1.22-1,1.73Z"/><path class="cls-5" d="M53.62,312.83c-1.87-10.52-2.34-22.21,3.75-31,5.06-7.3,13.87-11.23,22.64-12.61,6.7-1.06,87.36-7.61,90.32-4.67,2.73,2.71,11.2,7.72,14.59,21.81,4.07,16.92,16.4,89.06,12.92,104.16-9.62,2.4-101.65,2.87-116,3C81.29,388.18,56.68,330,53.62,312.83Z"/><path class="cls-6" d="M210.28,241.66c22.33,5.09,31.11,51.85,34.51,63.22a152.32,152.32,0,0,0,15.78,35.42c3.39,5.57,7.23,12.52,3.93,18.14-2.09,3.55-6.47,5.14-10.58,5.33-8.19.38-16.1-3.74-21.94-9.49s-9.93-13-13.7-20.3c-11.18-21.55-17.73-37.85-22.83-61.59C195.17,271.09,193.05,237.74,210.28,241.66Z"/><path class="cls-7" d="M258.86,368.65c2.85,2.91,15,4.39,16,3.69-1.06-6.34-7.29-2.74-8.06-7.62,1.89-1.33,4.14-.93,6-.93,1.62,0,3.14,1.44,3.82,3.18,1,2.64.65,3.45,1.06,6.26s3.2,4.78,3.2,3c0-3.24,0-8.23,0-11.47.79,2.88,1.36,12,5.23,11.11.95-4.35-1.06-8.18-1.08-12.63,1.1,3.77,1.08,12.63,5,11.37.16-4.05-1.35-8.16-1.19-12.22.87,3.58,2.25,11.34,4.39,10.09.65-3.9-.42-8-1.26-11.91-.52-2.35-.39-4.63-2.1-6.33-1.05-1-15.89-3.91-22-3.55-3.89.23-8.82-.37-11.27,1.57C247.06,359.84,255.66,365.39,258.86,368.65Z"/><path class="cls-8" d="M109,287.09c5.08,24.71,21.85,27.87,25,52.9,2.09,16.7-4.9,37.4-9.65,53.54,38.6,1.36,77.68.66,106.21-.58-1-23.39-10.39-54.45-8.22-77.77,1.24-13.37,4.19-25.77,2.3-39.06s-7.63-32.54-14.29-34.46c-12.94-3.72-23.82-7.07-38.73-8.69-6.51-.71-25.62-2.7-42.12-.37-10.36,1.46-19.14,3.4-22.86,4.91C82,247.49,104.56,265.71,109,287.09Z"/><path class="cls-9" d="M172.78,260.31c2.44-.18,12.9-18.87,12.1-21.18-2.8-6.43-8,.05-9.68-4.71-1.34-3.81,5.27-21.14,1.56-25.58-2.22-2.65-24.36-10.86-28.29-3.37-1.86,3.53-8.81,19.37-8.81,23.49C139.66,231.36,166,260.82,172.78,260.31Z"/><path class="cls-7" d="M192.63,352.28c1.42,1.67,4,7.36,5.55,12.17a67.82,67.82,0,0,1,1.28,6.66c-4,1.94-5.45-7.82-6.83-10.57-.41,3,.17,14.27-.89,14.17-3.87-1-3.45-9.41-3.16-13.46a48,48,0,0,1-1.89,7.72c-.81,2.65-1.76,5.14-3,6.43-2.48-.41-.82-8.19-.37-11.67a51.67,51.67,0,0,1-5.07,12.16c-2.5,0-2.28-3.61-1.48-5.66s2.79-4.56,1.62-6.44c.24,1.8-3.41,4.4-5.16,4.88s-6.66-1.21-8.4-1.71c-8.35-2.37-27.69-1.52-25.1-10.82,1.76-6.37,9.9-11.64,15.76-10.75,5.15.79,12.34,6.89,18.14,6.89C184,352.28,188.47,350.69,192.63,352.28Z"/><path class="cls-6" d="M165.5,347.45c-10.47-5.92-54-25.05-54.43-26-1.46-3.69,19.27-38.45,20.57-48.7s1.11-19.24-6.22-26.52c-9.76-9.69-18.85-8.71-18.85-8.71-6.77,2.37-8.57,4.6-12,8-4.91,4.76-7.75,11.21-10.46,17.49-8,18.52-16.06,37.15-20.8,56.77C62,325.09,61,330.86,62.94,336a21.87,21.87,0,0,0,6.77,8.68c11.54,9.55,27.27,11.85,42.12,13.78,15.41,2,31.39,6.48,46.8,8.48C161.8,367.38,168.82,349.33,165.5,347.45Z"/><path class="cls-6" d="M129.36,233.72c0,4.1,3.25,8,5,11.71L143,264.31l11.1-14.53a51.77,51.77,0,0,0,19.08,13.27l10.32-13.35a61.74,61.74,0,0,0,5.54,12c2-9.83,3.73-21-2.29-29.06a18,18,0,0,0-12-7c-1.8,6,2.27,12.2,2.22,18.46,0,5.09-2.76,9.72-5.41,14.07a104,104,0,0,1-9.94-7.13,12.73,12.73,0,0,1-4-4.55c-.7-1.59-.78-3.45-1.7-4.93s-2.64-2.39-4-3.55c-5.64-4.76-9.23-14-9.23-19.26C138.29,218.79,129.39,225.87,129.36,233.72Z"/><path class="cls-6" d="M173.16,267.76c5.55,26,10.73,52.48,9.18,79.22-.08,1.28,1.92,1.28,2,0,1.56-26.91-3.67-53.56-9.25-79.75-.27-1.26-2.2-.72-1.93.53Z"/><path class="cls-10" d="M183.66,191.29c-.66,4.13-.44,8.63,1.86,12.13s7.12,5.55,10.88,3.71c4.83-2.37,5.3-9,4.71-14.36-.37-3.38-1-6.9-3-9.61C191.28,174.1,184.76,184.46,183.66,191.29Z"/><path class="cls-7" d="M151.26,209.25c4.17,8.52,12.3,15.31,21.69,16.67,3.72.54,7.74.17,10.84-1.95a18.57,18.57,0,0,0,4.93-5.64,65.35,65.35,0,0,0,10-31.74c.4-8.84-1.65-18.79-9-23.73-5.58-3.76-12.8-3.69-19.52-3.49-3.46.11-7.05.25-10.14,1.83s-5.45,4.64-7.58,7.55C144.76,179.31,145.53,197.56,151.26,209.25Z"/><path class="cls-11" d="M172,212.86a10,10,0,0,0,10.69,2.06c1.17-.48.66-2.41-.54-1.93a8,8,0,0,1-8.74-1.55c-.94-.88-2.35.54-1.41,1.42Z"/><path class="cls-12" d="M167.6,173.33a19.08,19.08,0,0,1,.92,3.57,6.77,6.77,0,0,0,12.41,1.47,7.81,7.81,0,0,1,1.48-2.35c1.6-1.35,4.1-.2,5.49,1.36s2.27,4,4.32,4.48c5.89,1.3,7.24-2.82,8.16-6.63.89,2.68,7.08,1.69,9-.41s1.59-5.53,0-7.84-4.26-3.68-6.91-4.66a8,8,0,0,1-2.74-1.4c-2.75-2.5-.42-7.11-1.25-10.73-.93-4.06-6.35-6-10-4-2.72,1.49-4.46,4.57-7.41,5.53-.09-.68-9.58-4.36-9.69-1.82,0,0-4.05-2.82-10.42-1.22-3.11.78-6,3.61-6,6.81a9.35,9.35,0,0,0-6.3.29c-2.84.84-5.41,3.17-5.71,6.11a22.22,22.22,0,0,1-.17,3.17c-.63,2.67-3.91,3.6-4.7,6-1.16,3.43.35,6.56.83,10.19.79,5.94-.44,11.12,7.17,10.66,5.05-.31,9.07,2.17,10.77-2C157.59,187.9,162.3,163.11,167.6,173.33Z"/><path class="cls-10" d="M135.79,188.44c-.67,4.14-.12,9.63,2.18,13.13s7.12,5.55,10.88,3.71c4.84-2.37,5.3-9,4.71-14.36-.37-3.38-.95-6.9-3-9.61C143.73,172.25,136.89,181.61,135.79,188.44Z"/><path class="cls-10" d="M146.89,181.33c.14-8.52,2.1-18.19,9.41-23.52,5.14-3.76,15.19-7.42,24.7-6.12a12.34,12.34,0,0,0-5.29-2.84,29.36,29.36,0,0,0-22,5.61c-8.36,6.15-10.88,17-11.05,26.87,0,2.72,4.18,2.72,4.23,0Z"/><path class="cls-10" d="M144.63,198c1.68,10.54,10.63,19.84,21.41,20.82,1.28.12,1.27-1.88,0-2-9.94-.9-17.95-9.76-19.48-19.35-.2-1.26-2.13-.73-1.93.53Z"/><path class="cls-10" d="M174.11,217.1a4.7,4.7,0,1,1-4.7-4.7A4.69,4.69,0,0,1,174.11,217.1Z"/><path class="cls-11" d="M183.93,201.64a9,9,0,0,0,2.61,5.21c.43.43.94.91.89,1.5-.1,1-1.62,1.17-2.7,1a22.1,22.1,0,0,1-6.29-2.05A1.64,1.64,0,0,1,178,207a1.43,1.43,0,0,1-.36-.81c-.29-1.73.61-3.42,1.17-5.09.64-1.89.44-11.23,3.66-10.53C186.05,191.33,183.66,199.5,183.93,201.64Z"/><path class="cls-13" d="M137.71,195.09c0,2.13.26,4.51,1.85,5.93a4.27,4.27,0,0,0,6.29-1.07,8,8,0,0,0,.74-3.43,33,33,0,0,0-.36-9.16c-.56-2.5-2.07-5.21-4.61-5.53C137.59,181.31,137.67,192.7,137.71,195.09Z"/><path class="cls-12" d="M175.28,192.9c0,1.67-.83,3-1.85,3s-1.85-1.36-1.85-3,.83-3,1.85-3S175.28,191.22,175.28,192.9Z"/><ellipse class="cls-12" cx="190.9" cy="193.72" rx="1.85" ry="3.03"/><path class="cls-12" d="M168.51,186.79a5.31,5.31,0,0,1,5.71-1.28c1.22.44,1.74-1.49.54-1.92a7.28,7.28,0,0,0-7.67,1.79c-.9.92.52,2.33,1.42,1.41Z"/><path class="cls-12" d="M189.81,186.29a8.72,8.72,0,0,1,4.19,1.6c1.05.74,2.05-1,1-1.73a10.7,10.7,0,0,0-5.2-1.87c-1.28-.13-1.27,1.87,0,2Z"/><rect class="cls-4" x="28.36" y="385.03" width="415.01" height="18.32" rx="8.67"/><path class="cls-2" d="M49.19,403.35H422.54a0,0,0,0,1,0,0V404a12.19,12.19,0,0,1-12.19,12.19h-349A12.19,12.19,0,0,1,49.19,404v-.69A0,0,0,0,1,49.19,403.35Z"/><path class="cls-10" d="M363.88,347H223.79a9.18,9.18,0,0,1-9.12-10.15l8.61-80.65a9.18,9.18,0,0,1,9.12-8.2H372.49a9.18,9.18,0,0,1,9.12,10.15L373,338.78A9.18,9.18,0,0,1,363.88,347Z"/><path class="cls-5" d="M369.16,347H229.08A9.18,9.18,0,0,1,220,336.83l8.61-80.65a9.18,9.18,0,0,1,9.12-8.2H377.78a9.18,9.18,0,0,1,9.12,10.15l-8.61,80.65A9.19,9.19,0,0,1,369.16,347Z"/><path class="cls-10" d="M305.58,305.84h-9.24a6.3,6.3,0,0,0-6.3,6.3v67.25h21.84V312.14A6.3,6.3,0,0,0,305.58,305.84Z"/><rect class="cls-5" x="264.67" y="379.39" width="70.46" height="5.64"/><rect class="cls-10" x="190.9" y="379.39" width="82.94" height="5.64"/><path class="cls-10" d="M157.18,372.34h-7.84A9.64,9.64,0,0,0,139.7,382a3,3,0,0,0,3,3h21a3,3,0,0,0,3-3A9.64,9.64,0,0,0,157.18,372.34Z"/><path class="cls-14" d="M291,70.82c-.82-5.51-4.25-10.31-5.53-15.73-2.52-10.67,3.59-21.7,2.26-32.58-1.83-15-19-25.25-33.66-21.86C248,2.06,244.13,3.37,238.28,2.1,221.07-1.61,208.43,6.53,205,15.87c-8.28,22.47,4.26,26.05,7.5,44.87,1.36,7.94-11,20.94,4.69,39.47,5.29,6.24,13.48,9.9,21.65,11.33-1.75,3.94-4.21,8.47-7,10.69,0,0,11.19-3.11,18-9.74C269.46,112.78,296.29,106.05,291,70.82Z"/><path class="cls-10" d="M263.33,75.19,258,68.63A4.32,4.32,0,0,0,252,68l-1.59,1.28a2.16,2.16,0,0,1-3.05-.33l-6.56-8.14-.78-1-6.55-8.14a2.17,2.17,0,0,1,.33-3.05l1.59-1.28a4.32,4.32,0,0,0,.66-6.08l-5.28-6.57a4.33,4.33,0,0,0-6.09-.65l-1.73,1.39a10.52,10.52,0,0,0-1.6,14.8l4.11,5.11,7.91,9.83.78,1L242,76l4.11,5.11a10.54,10.54,0,0,0,14.8,1.6l1.74-1.4A4.34,4.34,0,0,0,263.33,75.19Z"/><path class="cls-15" d="M257.19,60.23l-.17,0a1,1,0,0,1-.81-1.16c.73-4.14.11-7.47-1.86-9.9-3.36-4.15-9.61-4.42-9.67-4.42a1,1,0,0,1-1-1,1,1,0,0,1,1-1c.29,0,7.2.29,11.15,5.15,2.35,2.9,3.12,6.78,2.28,11.52A1,1,0,0,1,257.19,60.23Z"/><path class="cls-15" d="M263.48,59.9h-.09a1,1,0,0,1-.9-1.09C264.17,41,247,38.73,246.27,38.65a1,1,0,0,1,.23-2c.2,0,19.85,2.5,18,22.33A1,1,0,0,1,263.48,59.9Z"/><path class="cls-15" d="M269.71,58.83a1,1,0,0,1-1-1c-.13-20.41-19.35-24.87-20.16-25a1,1,0,1,1,.42-2c.22.05,21.6,5,21.74,27a1,1,0,0,1-1,1Z"/><path class="cls-14" d="M446.26,74.06c-5.65-6-14.32-7.78-21.76-11.34-10.87-5.21-19.26-14.39-27-23.65-8.4-10.09-19-22.91-33.25-23.11-14.89-.21-29.94,9-39.35,19.92-10.63,12.37-16.33,28.4-18.53,44.57-1.62,12-1.34,24.59,3.94,35.44a35.64,35.64,0,0,0,5.09,7.71c-2.34,4.17-5.81,9.23-9.91,11.51,0,0,10.94-.31,17.95-4.61a26.84,26.84,0,0,0,15.37,4.23c9.05-.43,18-5.75,26.7-3.13,4.33,1.31,7.83,4.43,11.47,7.11,13.79,10.15,32.78,14.56,48.41,7.58,18.33-8.18,27.49-29.73,27.63-49.8C453.1,88.48,451.74,79.9,446.26,74.06Z"/><rect class="cls-15" x="337.18" y="65.26" width="75.39" height="54.78"/><path class="cls-10" d="M343.46,71.05a1.5,1.5,0,0,1-1.5-1.5V62.27a1.5,1.5,0,1,1,3,0v7.28A1.5,1.5,0,0,1,343.46,71.05Z"/><path class="cls-10" d="M352.44,71.05a1.5,1.5,0,0,1-1.5-1.5V62.27a1.5,1.5,0,1,1,3,0v7.28A1.5,1.5,0,0,1,352.44,71.05Z"/><path class="cls-10" d="M361.41,71.05a1.5,1.5,0,0,1-1.5-1.5V62.27a1.5,1.5,0,1,1,3,0v7.28A1.5,1.5,0,0,1,361.41,71.05Z"/><path class="cls-10" d="M370.39,71.05a1.5,1.5,0,0,1-1.5-1.5V62.27a1.5,1.5,0,1,1,3,0v7.28A1.5,1.5,0,0,1,370.39,71.05Z"/><path class="cls-10" d="M379.36,71.05a1.5,1.5,0,0,1-1.5-1.5V62.27a1.5,1.5,0,1,1,3,0v7.28A1.5,1.5,0,0,1,379.36,71.05Z"/><path class="cls-10" d="M388.34,71.05a1.5,1.5,0,0,1-1.5-1.5V62.27a1.5,1.5,0,1,1,3,0v7.28A1.5,1.5,0,0,1,388.34,71.05Z"/><path class="cls-10" d="M397.31,71.05a1.5,1.5,0,0,1-1.5-1.5V62.27a1.5,1.5,0,1,1,3,0v7.28A1.5,1.5,0,0,1,397.31,71.05Z"/><path class="cls-10" d="M406.29,71.05a1.5,1.5,0,0,1-1.5-1.5V62.27a1.5,1.5,0,1,1,3,0v7.28A1.5,1.5,0,0,1,406.29,71.05Z"/><rect class="cls-2" x="358.66" y="77.78" width="7.66" height="7.66"/><rect class="cls-2" x="370.66" y="77.78" width="7.66" height="7.66"/><rect class="cls-2" x="382.67" y="77.78" width="7.66" height="7.66"/><rect class="cls-16" x="394.68" y="77.78" width="7.66" height="7.66"/><rect class="cls-16" x="346.65" y="88.83" width="7.66" height="7.66"/><rect class="cls-2" x="358.66" y="88.83" width="7.66" height="7.66"/><rect class="cls-2" x="370.66" y="88.83" width="7.66" height="7.66"/><rect class="cls-2" x="382.67" y="88.83" width="7.66" height="7.66"/><rect class="cls-16" x="394.68" y="88.83" width="7.66" height="7.66"/><rect class="cls-16" x="346.65" y="99.87" width="7.66" height="7.66"/><rect class="cls-2" x="358.66" y="99.87" width="7.66" height="7.66"/><rect class="cls-2" x="370.66" y="99.87" width="7.66" height="7.66"/><rect class="cls-2" x="382.67" y="99.87" width="7.66" height="7.66"/><path class="cls-14" d="M64.54,60.44c-20.08,14.62-44.67-.1-57.88,28.25-5.45,11.69-3.29,23.08,2.19,35.58,6.37,14.53,15.42,20.26,28.49,20.92,7.56.38,13.9-2.9,21.24-7.41,5.34,3.26,12.56,6.71,19.24,6.75,0,0-5.84-4.23-7.71-13.82,2.78-1.61,5.76-3.23,9-4.78,20.41-9.69,27.7-1,40-15.86C139.28,85.69,106.39,30,64.54,60.44Z"/><path class="cls-15" d="M86.42,74.12,94.26,102a4,4,0,0,1-2.78,5L41.13,121.08a4,4,0,0,1-5-2.78L28.34,90.46a4,4,0,0,1,2.78-4.94L81.48,71.35a4.09,4.09,0,0,1,2.66.17A4,4,0,0,1,86.42,74.12Z"/><path class="cls-17" d="M69.79,93.82l23.87,11.55a4,4,0,0,1-2.18,1.54l-2.52.71L67.56,97.28l-3.17,4.93a2.08,2.08,0,0,1-1.17.86,2,2,0,0,1-1.43-.13l-5.29-2.55-12.85,20-5.19.53L52.81,98.6,28.94,87.05a4,4,0,0,1,2.18-1.53l2.52-.71,28.3,13.68L79,72.06l2.52-.71a4.09,4.09,0,0,1,2.66.17Z"/><path class="cls-14" d="M188.48,55c-2.11-3.51-5.63-6.41-6.16-10.46a11.34,11.34,0,0,1,.53-5.9,26.21,26.21,0,0,0-8.73-31.68c-8.05-6-18.89-7.45-27.77-3.36-13.45,6.18-21.16,18.09-14.49,37.19,1.87,5.34,4.36,10.67,4.38,16.33,0,4.37-3.09,15.09,6.16,24.89a24.71,24.71,0,0,0,19.94,7.92c.89,2.69,1.79,7.39.79,14.28,0,0,8.92-7.47,9.61-16.68C194.5,80,191.73,60.37,188.48,55Z"/><path class="cls-10" d="M156.33,62.23h0a3.57,3.57,0,0,0,0,7.14h0a3.57,3.57,0,0,0,0-7.14Z"/><path class="cls-10" d="M166,29.82q-3.63-3.64-9.78-3.64a12.79,12.79,0,0,0-9.44,3.59,13.15,13.15,0,0,0-2.67,3.78c-1.09,2.33.3,5.18,2.61,5.5h0a3.29,3.29,0,0,0,3.47-2.19,7.72,7.72,0,0,1,1.79-2.77,6.3,6.3,0,0,1,4.54-1.76A6,6,0,0,1,161,34a5.52,5.52,0,0,1,1.66,4,5.44,5.44,0,0,1-.94,3.1A32.15,32.15,0,0,1,158,44.93a17.32,17.32,0,0,0-4.17,5.18,16.81,16.81,0,0,0-.7,3.79,3.45,3.45,0,0,0,3.16,4h0a3.31,3.31,0,0,0,3.13-3,6.24,6.24,0,0,1,.37-1.58,11.88,11.88,0,0,1,2.81-3.42,31.72,31.72,0,0,0,5.7-6.5,10.22,10.22,0,0,0,1.34-5.06A11.59,11.59,0,0,0,166,29.82Z"/></g></g></svg>