<svg xmlns="http://www.w3.org/2000/svg" xmlns:xlink="http://www.w3.org/1999/xlink" id="visual" viewBox="0 0 900 440" width="900" height="440" version="1.1"><rect x="0" y="0" width="900" height="440" fill="#ffffff"/><defs><linearGradient id="grad1_0" x1="51.1%" y1="0%" x2="100%" y2="100%"><stop offset="9.09090909090909%" stop-color="#ffffff" stop-opacity="1"/><stop offset="90.90909090909092%" stop-color="#ffffff" stop-opacity="1"/></linearGradient></defs><defs><linearGradient id="grad2_0" x1="0%" y1="0%" x2="48.9%" y2="100%"><stop offset="9.09090909090909%" stop-color="#ffffff" stop-opacity="1"/><stop offset="90.90909090909092%" stop-color="#ffffff" stop-opacity="1"/></linearGradient></defs><g transform="translate(900, 0)"><path d="M0 264C-38.6 244.4 -77.2 224.8 -118.5 205.2C-159.8 185.7 -203.9 166.2 -228.6 132C-253.3 97.8 -258.7 48.9 -264 0L0 0Z" fill="#f9fafd"/></g><g transform="translate(0, 440)"><path d="M0 -264C48 -258.1 96 -252.3 132 -228.6C168 -205 192.2 -163.6 212.2 -122.5C232.2 -81.4 248.1 -40.7 264 0L0 0Z" fill="#f9fafd"/></g></svg>