<svg xmlns="http://www.w3.org/2000/svg" xmlns:xlink="http://www.w3.org/1999/xlink" xmlns:svgjs="http://svgjs.dev/svgjs" version="1.1" viewBox="0 0 800 800"><defs><linearGradient x1="50%" y1="0%" x2="50%" y2="100%" id="ffflurry-grad" gradientTransform="rotate(270)"><stop stop-color="hsl(0, 0%, 100%)" stop-opacity="1" offset="0%"/><stop stop-color="#d1ccff" stop-opacity="1" offset="45%"/><stop stop-color="#ffe2dc" stop-opacity="1" offset="100%"/></linearGradient></defs><rect width="100%" height="100%" fill="hsl(0, 0%, 100%)"/><g fill="url(#ffflurry-grad)"><rect width="208" height="3" x="263" y="722.5" rx="1.5" transform="rotate(28, 367, 724)" opacity="0.29"/><rect width="138" height="3" x="3" y="54.5" rx="1.5" transform="rotate(28, 72, 56)" opacity="0.18"/><rect width="400" height="3" x="350" y="247.5" rx="1.5" transform="rotate(28, 550, 249)" opacity="0.20"/><rect width="863" height="3" x="-280.5" y="734.5" rx="1.5" transform="rotate(28, 151, 736)" opacity="0.86"/><rect width="505" height="3" x="235.5" y="90.5" rx="1.5" transform="rotate(28, 488, 92)" opacity="0.93"/><rect width="482" height="3" x="-170" y="462.5" rx="1.5" transform="rotate(28, 71, 464)" opacity="0.84"/><rect width="736" height="3" x="348" y="724.5" rx="1.5" transform="rotate(28, 716, 726)" opacity="0.85"/><rect width="507" height="3" x="303.5" y="534.5" rx="1.5" transform="rotate(28, 557, 536)" opacity="0.90"/><rect width="834" height="3" x="122" y="701.5" rx="1.5" transform="rotate(28, 539, 703)" opacity="0.39"/><rect width="295" height="3" x="559.5" y="573.5" rx="1.5" transform="rotate(28, 707, 575)" opacity="0.50"/><rect width="952" height="3" x="-56" y="487.5" rx="1.5" transform="rotate(28, 420, 489)" opacity="0.24"/><rect width="576" height="3" x="-211" y="320.5" rx="1.5" transform="rotate(28, 77, 322)" opacity="0.28"/><rect width="219" height="3" x="265.5" y="281.5" rx="1.5" transform="rotate(28, 375, 283)" opacity="0.18"/><rect width="598" height="3" x="-91" y="481.5" rx="1.5" transform="rotate(28, 208, 483)" opacity="0.48"/><rect width="513" height="3" x="302.5" y="384.5" rx="1.5" transform="rotate(28, 559, 386)" opacity="0.43"/><rect width="832" height="3" x="-229" y="98.5" rx="1.5" transform="rotate(28, 187, 100)" opacity="0.46"/><rect width="872" height="3" x="-136" y="592.5" rx="1.5" transform="rotate(28, 300, 594)" opacity="0.92"/><rect width="529" height="3" x="29.5" y="387.5" rx="1.5" transform="rotate(28, 294, 389)" opacity="0.36"/><rect width="647" height="3" x="2.5" y="47.5" rx="1.5" transform="rotate(28, 326, 49)" opacity="0.22"/><rect width="591" height="3" x="9.5" y="164.5" rx="1.5" transform="rotate(28, 305, 166)" opacity="0.75"/><rect width="464" height="3" x="-168" y="185.5" rx="1.5" transform="rotate(28, 64, 187)" opacity="0.57"/><rect width="494" height="3" x="454" y="120.5" rx="1.5" transform="rotate(28, 701, 122)" opacity="0.42"/><rect width="709" height="3" x="-154.5" y="272.5" rx="1.5" transform="rotate(28, 200, 274)" opacity="0.42"/><rect width="966" height="3" x="244" y="380.5" rx="1.5" transform="rotate(28, 727, 382)" opacity="0.73"/><rect width="259" height="3" x="-50.5" y="625.5" rx="1.5" transform="rotate(28, 79, 627)" opacity="0.70"/></g></svg>