<svg id="visual" viewBox="0 0 1362 528.8" width="1362" height="528.8" xmlns="http://www.w3.org/2000/svg" xmlns:xlink="http://www.w3.org/1999/xlink" version="1.1"><path d="M0 427L17.5 421.2C35 415.3 70 403.7 105 404.2C140 404.7 175 417.3 209.8 414.8C244.7 412.3 279.3 394.7 314.2 393.3C349 392 384 407 419 404.3C454 401.7 489 381.3 524 373.5C559 365.7 594 370.3 628.8 375.7C663.7 381 698.3 387 733.2 389.3C768 391.7 803 390.3 838 386.2C873 382 908 375 943 370.2C978 365.3 1013 362.7 1047.8 367.3C1082.7 372 1117.3 384 1152.2 391.2C1187 398.3 1222 400.7 1257 406.3C1292 412 1327 421 1344.5 425.5L1362 430" fill="none" stroke-linecap="round" stroke-linejoin="miter" stroke="#e4fcff" stroke-width="40"></path></svg>