<svg xmlns="http://www.w3.org/2000/svg" viewBox="0 0 750 500"><defs><style>.cls-1{fill:none;}.cls-2{fill:#263238;}.cls-3,.cls-7{fill:#ff725e;}.cls-3,.cls-5{fill-rule:evenodd;}.cls-4{opacity:0.2;}.cls-6{fill:#fff;}.cls-8{fill:#f5f5f5;}.cls-9{fill:#455a64;}.cls-10{opacity:0.3;}.cls-11{fill:#e0e0e0;}.cls-12{opacity:0.6;}.cls-13{fill:#ffbe9d;}.cls-14{fill:#8f43ee;}.cls-15{fill:#ebebeb;}</style></defs><g id="Layer_2" data-name="Layer 2"><g id="Layer_11" data-name="Layer 11"><rect class="cls-1" width="750" height="500"/><path class="cls-2" d="M709.78,385.59c0,.14-151.24.26-337.76.26s-337.8-.12-337.8-.26,151.21-.26,337.8-.26S709.78,385.44,709.78,385.59Z"/><path class="cls-2" d="M597,476.09c0,.14-107.2.26-239.41.26s-239.44-.12-239.44-.26,107.18-.26,239.44-.26S597,475.94,597,476.09Z"/><path class="cls-3" d="M404.4,96.05A51.45,51.45,0,1,1,353,44.59,51.45,51.45,0,0,1,404.4,96.05Z"/><path class="cls-2" d="M404.4,96.05s0-.28-.06-.84-.09-1.37-.15-2.44c0-.54-.07-1.14-.11-1.8s-.21-1.37-.32-2.15l-.39-2.5a9.91,9.91,0,0,0-.3-1.37c-.12-.47-.24-1-.37-1.44A49.23,49.23,0,0,0,397,69.85a51.31,51.31,0,0,0-13-14.56l-2.22-1.65c-.77-.51-1.59-1-2.41-1.48s-1.61-1-2.49-1.44l-2.67-1.28c-.44-.21-.89-.44-1.35-.64l-1.42-.52-2.88-1.05c-1-.33-2-.53-3-.81a27.25,27.25,0,0,0-3.1-.7,47.4,47.4,0,0,0-6.48-.75c-1.11,0-2.22-.15-3.34-.13L349.2,45a49.85,49.85,0,0,0-13.7,2.93,51.93,51.93,0,0,0-13,7,53.46,53.46,0,0,0-10.81,10.9,51.24,51.24,0,0,0,23.78,78.41,53.61,53.61,0,0,0,13.71,2.92l3.39.15c1.12,0,2.23-.1,3.34-.14a45.88,45.88,0,0,0,6.48-.75,27.25,27.25,0,0,0,3.1-.7c1-.27,2-.48,3-.81l2.88-1.05,1.42-.52c.46-.2.91-.43,1.35-.64l2.67-1.28c.88-.4,1.67-1,2.5-1.44s1.63-1,2.4-1.48L384,136.8a51.28,51.28,0,0,0,13-14.55,49.09,49.09,0,0,0,5.69-13.67c.13-.49.25-1,.37-1.43a10.24,10.24,0,0,0,.3-1.37l.39-2.51c.11-.77.25-1.49.32-2.15s.08-1.26.11-1.8c.06-1.06.11-1.87.15-2.44s.06-.83.06-.83,0,.28,0,.83-.06,1.38-.1,2.45c0,.54-.05,1.14-.08,1.8s-.19,1.38-.3,2.16-.24,1.62-.37,2.52a8.89,8.89,0,0,1-.28,1.38c-.12.47-.24,1-.37,1.44a48.84,48.84,0,0,1-5.63,13.77,51.2,51.2,0,0,1-13.07,14.69L382,138.76c-.79.52-1.61,1-2.43,1.5s-1.62,1.05-2.51,1.46l-2.68,1.3-1.36.65-1.43.52-2.91,1.07c-1,.33-2,.54-3,.82a25,25,0,0,1-3.13.72,48,48,0,0,1-6.53.77c-1.11,0-2.23.15-3.37.14l-3.42-.15a53.89,53.89,0,0,1-13.84-2.92,52.17,52.17,0,0,1-24-18,51.51,51.51,0,0,1,0-61.15,54,54,0,0,1,10.93-11,52.5,52.5,0,0,1,13.1-7,50.61,50.61,0,0,1,13.84-2.94l3.42-.15c1.13,0,2.25.09,3.36.13a48.28,48.28,0,0,1,6.54.77,27.16,27.16,0,0,1,3.12.72c1,.28,2.06.49,3,.82l2.91,1.07,1.43.52,1.36.65,2.68,1.3c.89.41,1.68,1,2.51,1.46s1.64,1,2.43,1.5L384.19,55a51.1,51.1,0,0,1,13.07,14.7,48.68,48.68,0,0,1,5.63,13.76l.37,1.45a8.55,8.55,0,0,1,.28,1.37c.13.9.26,1.74.37,2.52s.24,1.5.3,2.16.06,1.27.08,1.81c0,1.06.08,1.88.1,2.44S404.4,96.05,404.4,96.05Z"/><g class="cls-4"><path class="cls-5" d="M303,108.42c1.71,7.83,7.12,16.27,7.12,16.27a18.52,18.52,0,0,1,10.58,5.57c1,1.1,1.9,2.4,3.31,2.78a3.87,3.87,0,0,0,4.35-2.52,6.75,6.75,0,0,0-.54-5.33c-.9-1.8-2.34-3.87-1.33-5.62a3.59,3.59,0,0,1,3.27-1.49c1.25,0,2.47.43,3.72.57,3,.35,6.34-.76,9,.76,2,1.16,3,3.55,3.46,5.84s.56,4.68,1.5,6.82,3,4,5.36,3.72,3.7-2.33,4.63-4.33,1.61-4.23,3.26-5.7c1-.89,2.29-1.43,3.18-2.44,1.66-1.89,1.35-4.87.17-7.1-.78-1.48-1.87-2.78-2.5-4.33s-.68-3.5.5-4.69a4.52,4.52,0,0,1,4.24-.8c3.66.88,6.31,3.94,9.21,6.35s7,4.31,10.34,2.51c2.85-1.54,3.8-5.12,4.38-8.31.68-3.65,1-8-1.8-10.46a11,11,0,0,0-3.47-1.8c-2.58-1-5.27-2-7.06-4.11A8.45,8.45,0,0,1,377.77,80c.84-1,1.93-1.82,2.67-2.9A12,12,0,0,0,382,71.73c.53-4.1.68-9.09-2.73-11.43-2.33-1.61-5.47-1.25-8.21-.56A13.54,13.54,0,0,0,365.84,62a5.74,5.74,0,0,0-2.3,5c.27,2.11,2,4.29.95,6.12-1.26,2.11-4.6,1-6.85,2-1.44.64-2.29,2.11-3.34,3.29a11.11,11.11,0,0,1-11.2,3.27,21.8,21.8,0,0,1-4.25-2l-3.62-2c-1.55-.25-2.14-2.15-2.4-3.7-.52-3.1-.68-7,2.06-8.57a5.72,5.72,0,0,1,5.87-5.91,7.45,7.45,0,0,0,2.93.1c.94-.32,1.48-1.78.62-2.27a20.32,20.32,0,0,0-9.64,2,11.58,11.58,0,0,0-6.12,7.43c-.55,2.42-.13,5-.95,7.36-.88,2.54-3.05,4.38-5.14,6.09L316.68,85c-4.11,3.37-10,6.66-15.18,7.84C301.42,99,301.79,104.39,303,108.42Z"/></g><path class="cls-2" d="M404.4,96.05s0-.28-.06-.84-.09-1.37-.15-2.44c0-.54-.07-1.14-.11-1.8s-.21-1.37-.32-2.15l-.39-2.5a9.91,9.91,0,0,0-.3-1.37c-.12-.47-.24-1-.37-1.44A49.23,49.23,0,0,0,397,69.85a51.31,51.31,0,0,0-13-14.56l-2.22-1.65c-.77-.51-1.59-1-2.41-1.48s-1.61-1-2.49-1.44l-2.67-1.28c-.44-.21-.89-.44-1.35-.64l-1.42-.52-2.88-1.05c-1-.33-2-.53-3-.81a27.25,27.25,0,0,0-3.1-.7,47.4,47.4,0,0,0-6.48-.75c-1.11,0-2.22-.15-3.34-.13L349.2,45a49.85,49.85,0,0,0-13.7,2.93,51.93,51.93,0,0,0-13,7,53.46,53.46,0,0,0-10.81,10.9,51.24,51.24,0,0,0,23.78,78.41,53.61,53.61,0,0,0,13.71,2.92l3.39.15c1.12,0,2.23-.1,3.34-.14a45.88,45.88,0,0,0,6.48-.75,27.25,27.25,0,0,0,3.1-.7c1-.27,2-.48,3-.81l2.88-1.05,1.42-.52c.46-.2.91-.43,1.35-.64l2.67-1.28c.88-.4,1.67-1,2.5-1.44s1.63-1,2.4-1.48L384,136.8a51.28,51.28,0,0,0,13-14.55,49.09,49.09,0,0,0,5.69-13.67c.13-.49.25-1,.37-1.43a10.24,10.24,0,0,0,.3-1.37l.39-2.51c.11-.77.25-1.49.32-2.15s.08-1.26.11-1.8c.06-1.06.11-1.87.15-2.44s.06-.83.06-.83,0,.28,0,.83-.06,1.38-.1,2.45c0,.54-.05,1.14-.08,1.8s-.19,1.38-.3,2.16-.24,1.62-.37,2.52a8.89,8.89,0,0,1-.28,1.38c-.12.47-.24,1-.37,1.44a48.84,48.84,0,0,1-5.63,13.77,51.2,51.2,0,0,1-13.07,14.69L382,138.76c-.79.52-1.61,1-2.43,1.5s-1.62,1.05-2.51,1.46l-2.68,1.3-1.36.65-1.43.52-2.91,1.07c-1,.33-2,.54-3,.82a25,25,0,0,1-3.13.72,48,48,0,0,1-6.53.77c-1.11,0-2.23.15-3.37.14l-3.42-.15a53.89,53.89,0,0,1-13.84-2.92,52.17,52.17,0,0,1-24-18,51.51,51.51,0,0,1,0-61.15,54,54,0,0,1,10.93-11,52.5,52.5,0,0,1,13.1-7,50.61,50.61,0,0,1,13.84-2.94l3.42-.15c1.13,0,2.25.09,3.36.13a48.28,48.28,0,0,1,6.54.77,27.16,27.16,0,0,1,3.12.72c1,.28,2.06.49,3,.82l2.91,1.07,1.43.52,1.36.65,2.68,1.3c.89.41,1.68,1,2.51,1.46s1.64,1,2.43,1.5L384.19,55a51.1,51.1,0,0,1,13.07,14.7,48.68,48.68,0,0,1,5.63,13.76l.37,1.45a8.55,8.55,0,0,1,.28,1.37c.13.9.26,1.74.37,2.52s.24,1.5.3,2.16.06,1.27.08,1.81c0,1.06.08,1.88.1,2.44S404.4,96.05,404.4,96.05Z"/><path class="cls-2" d="M400.23,89.24a2.42,2.42,0,0,1,.13.56c.06.36.18.9.26,1.61a41.07,41.07,0,0,1,.36,6,44.13,44.13,0,0,1-17.15,34.4,40.88,40.88,0,0,1-5,3.33c-.61.36-1.11.59-1.44.76a3,3,0,0,1-.52.23,21.73,21.73,0,0,1,1.86-1.17,48,48,0,0,0,4.88-3.44,45.14,45.14,0,0,0,17-34.12,47.62,47.62,0,0,0-.19-6C400.29,90,400.19,89.25,400.23,89.24Z"/><path class="cls-2" d="M308.38,94a11.61,11.61,0,0,0,.39-1.92,5.88,5.88,0,0,0-1.68-4.53l-.13-.12.09-.16a17.5,17.5,0,0,0,1.74-4.67,17.07,17.07,0,0,0,.33-5l0-.24.23,0a8.37,8.37,0,0,0,4.52-1.92c.94-.79,1.34-1.4,1.39-1.36s-.06.18-.25.46a6.64,6.64,0,0,1-1,1.11,8.16,8.16,0,0,1-4.65,2.18l.21-.26a16.7,16.7,0,0,1-2.13,10l0-.29a6,6,0,0,1,1.63,4.9,5.15,5.15,0,0,1-.39,1.44C308.51,93.89,308.4,94,308.38,94Z"/><path class="cls-2" d="M398.11,82.7a26.27,26.27,0,0,1-1.29-3.39,26,26,0,0,1-1.3-3.4,8.67,8.67,0,0,1,1.78,3.21A8.72,8.72,0,0,1,398.11,82.7Z"/><path class="cls-6" d="M316.45,69.5a11.74,11.74,0,0,1,.84-1.52,14.59,14.59,0,0,1,1.11-1.72A24.53,24.53,0,0,1,320,64.09l1-1.21c.35-.42.77-.81,1.18-1.24A36.63,36.63,0,0,1,325,59.05a40.45,40.45,0,0,1,15.19-8c1.29-.32,2.51-.66,3.68-.83.59-.09,1.15-.21,1.69-.27l1.57-.16a24.41,24.41,0,0,1,2.71-.13,14.71,14.71,0,0,1,2.05,0,9.73,9.73,0,0,1,1.73.17,13.08,13.08,0,0,1-1.74,0,18.37,18.37,0,0,0-2,0,25.55,25.55,0,0,0-2.68.21l-1.55.18c-.54.07-1.09.21-1.67.31-1.15.18-2.36.53-3.63.86a41.69,41.69,0,0,0-15,8c-1,.87-1.95,1.67-2.76,2.52-.4.42-.82.8-1.18,1.21l-1,1.18c-.68.73-1.19,1.47-1.68,2.1a19.85,19.85,0,0,0-1.17,1.65A11.17,11.17,0,0,1,316.45,69.5Z"/><path class="cls-6" d="M347.2,141.46a2,2,0,0,1-.59-.07c-.39-.07-.95-.16-1.67-.32-1.45-.3-3.53-.81-6.05-1.6a53.31,53.31,0,0,1-18.16-9.63,39.9,39.9,0,0,1-7.59-8.47A34.73,34.73,0,0,1,309,113a29.19,29.19,0,0,1-1.34-6.11c-.1-.73-.09-1.31-.12-1.7a2.41,2.41,0,0,1,0-.59s.1.81.31,2.26a31.92,31.92,0,0,0,1.49,6,38.67,38.67,0,0,0,11.67,16.52A55.2,55.2,0,0,0,339,139.12c2.5.83,4.56,1.39,6,1.75l1.65.42A4.66,4.66,0,0,1,347.2,141.46Z"/><path class="cls-7" d="M282.87,277.38l.38,2.85a4.39,4.39,0,0,0,1.81,1.66l1.53.33-1.5.39a4.42,4.42,0,0,0-1.67,1.81l-.33,2.38-.38-2.35a4.35,4.35,0,0,0-1.81-1.67l-1.65-.33,1.62-.38a4.41,4.41,0,0,0,1.67-1.81Z"/><path class="cls-7" d="M687.18,221.51l.39,2.85a4.39,4.39,0,0,0,1.8,1.67l1.53.33-1.5.38a4.39,4.39,0,0,0-1.66,1.81l-.33,2.38-.39-2.35a4.35,4.35,0,0,0-1.81-1.67l-1.65-.33,1.62-.38a4.35,4.35,0,0,0,1.67-1.81Z"/><path class="cls-7" d="M438.23,143.85l.38,2.84a4.41,4.41,0,0,0,1.81,1.67l1.53.33-1.5.38a4.39,4.39,0,0,0-1.66,1.81l-.33,2.38-.39-2.35a4.42,4.42,0,0,0-1.81-1.67l-1.65-.33,1.62-.38a4.35,4.35,0,0,0,1.67-1.81Z"/><path class="cls-7" d="M235.91,54.14l.38,2.84a4.35,4.35,0,0,0,1.81,1.67l1.52.33-1.49.38a4.35,4.35,0,0,0-1.67,1.81l-.33,2.38-.38-2.35a4.33,4.33,0,0,0-1.81-1.66l-1.65-.33,1.62-.39A4.42,4.42,0,0,0,235.58,57Z"/><path class="cls-7" d="M47.27,201.74l.39,2.84a4.35,4.35,0,0,0,1.81,1.67l1.52.33L49.5,207a4.41,4.41,0,0,0-1.67,1.81l-.33,2.38-.38-2.35a4.39,4.39,0,0,0-1.81-1.66l-1.65-.33,1.62-.39a4.39,4.39,0,0,0,1.66-1.81Z"/><path class="cls-7" d="M685.55,58.72l.35,2.61a4.08,4.08,0,0,0,1.66,1.53l1.4.3-1.37.35a4.08,4.08,0,0,0-1.53,1.66l-.3,2.19-.35-2.16a4.08,4.08,0,0,0-1.66-1.53l-1.52-.3,1.49-.35a4.08,4.08,0,0,0,1.53-1.66Z"/><path class="cls-7" d="M173.35,129.7l.62,4.63a7.2,7.2,0,0,0,2.95,2.71l2.48.54-2.44.62a7.18,7.18,0,0,0-2.71,2.94l-.53,3.88-.63-3.83a7.18,7.18,0,0,0-2.94-2.71l-2.68-.54,2.63-.62a7.05,7.05,0,0,0,2.71-2.94Z"/><path class="cls-7" d="M479.55,88.55l.54,4a6.05,6.05,0,0,0,2.53,2.33l2.13.46-2.09.54a6.18,6.18,0,0,0-2.33,2.53l-.46,3.33-.54-3.29a6.12,6.12,0,0,0-2.53-2.33l-2.3-.46,2.26-.54a6.15,6.15,0,0,0,2.33-2.52Z"/><path class="cls-7" d="M261,259.87l.73,5.42a8.38,8.38,0,0,0,3.45,3.17l2.9.63-2.85.73a8.41,8.41,0,0,0-3.17,3.44l-.63,4.54-.73-4.48a8.31,8.31,0,0,0-3.45-3.17l-3.14-.63,3.09-.73a8.38,8.38,0,0,0,3.17-3.45Z"/><path class="cls-8" d="M156.24,244.43H363.55c-2.54-4.87-12.6-17.44-18-18.55a18.82,18.82,0,0,0-15.47,3.8A58,58,0,0,0,310.31,204c-7.53-5.47-16.94-9.14-26.12-7.55s-17.53,9.63-17.25,18.93a23,23,0,0,0-40.38,13.28A26.85,26.85,0,0,0,188.83,235a25.19,25.19,0,0,0-27.22,4.22Z"/><path class="cls-6" d="M345.59,225.78a18.85,18.85,0,0,0-15.48,3.8,57.87,57.87,0,0,0-19.79-25.67c-7.53-5.48-16.94-9.15-26.12-7.56S266.68,206,267,215.28a23,23,0,0,0-40.39,13.28,26.84,26.84,0,0,0-37.72,6.29,25.21,25.21,0,0,0-27.23,4.22s14.44-9.24,28.1,0c0,0,8.33-8.63,20-9.36a33.41,33.41,0,0,1,20,5.27s2-13.66,14.67-20S273,225.7,273,225.7s.14-19.95,17.66-21S325,220,327,237C331.43,230.7,337.32,226.54,345.59,225.78Z"/><path class="cls-2" d="M156.24,244.43l1.71-1.72,2.14-2.13,1.38-1.37c.52-.46,1.07-1,1.68-1.44a24.46,24.46,0,0,1,10.45-4.68,25.06,25.06,0,0,1,15.29,1.73l-.17.05a27.34,27.34,0,0,1,15.84-10.76,26.87,26.87,0,0,1,11.11-.28,27.58,27.58,0,0,1,11,4.67l-.3.15A23.18,23.18,0,0,1,230.71,217a23,23,0,0,1,36.41-1.75l-.41.16a17.39,17.39,0,0,1,.7-5.1,19.53,19.53,0,0,1,2.25-4.7,23.69,23.69,0,0,1,3.46-4,25.24,25.24,0,0,1,4.37-3.07,23.74,23.74,0,0,1,5-2,25.81,25.81,0,0,1,5.4-.73,31.07,31.07,0,0,1,10.89,1.79A49.71,49.71,0,0,1,317.65,210a58.29,58.29,0,0,1,12.69,19.58l-.4-.11a19.17,19.17,0,0,1,13.3-4.18,11.89,11.89,0,0,1,3.66.76,11.19,11.19,0,0,1,1.63.91A14.68,14.68,0,0,1,350,228a45.44,45.44,0,0,1,5.28,5c1.62,1.77,3.15,3.6,4.57,5.47a46.34,46.34,0,0,1,3.89,5.81l.2.38h-.43l-207.31-.26,207.31-.26-.23.38a46.68,46.68,0,0,0-3.84-5.74q-2.13-2.79-4.54-5.43a45.09,45.09,0,0,0-5.22-4.93,15,15,0,0,0-1.47-1,10.35,10.35,0,0,0-1.56-.87,11.12,11.12,0,0,0-3.48-.72,18.7,18.7,0,0,0-12.94,4.06l-.28.23-.13-.34a57.84,57.84,0,0,0-12.58-19.4,49.16,49.16,0,0,0-18.65-12.26,30.58,30.58,0,0,0-10.7-1.77,25.32,25.32,0,0,0-5.3.7,24.25,24.25,0,0,0-4.91,1.94,24.64,24.64,0,0,0-4.27,3,22.68,22.68,0,0,0-3.39,3.88,19,19,0,0,0-2.2,4.57,17,17,0,0,0-.68,4.95V216l-.41-.47a22.59,22.59,0,0,0-35.72,1.68,23,23,0,0,0-4.3,11.45l0,.35-.28-.2a27.09,27.09,0,0,0-10.85-4.63,26.34,26.34,0,0,0-11,.25A27,27,0,0,0,189,235l-.07.09-.11-.05a24.87,24.87,0,0,0-15.13-1.77,24.6,24.6,0,0,0-10.4,4.59c-.61.48-1.16,1-1.68,1.42l-1.37,1.33L158,242.71Z"/><path class="cls-2" d="M260.83,225.11s-.16-.13-.42-.41l-.46-.52-.71-.65a13.68,13.68,0,0,0-5.27-2.85,15.92,15.92,0,0,0-8.82,0,16.36,16.36,0,0,0-8.69,6.29,21.76,21.76,0,0,0-4,12.41v1.18l-.44-1.1a6.85,6.85,0,0,0-4.25-3.93,6.54,6.54,0,0,0-4.55.23,7.22,7.22,0,0,0-2.48,1.72c-.48.52-.67.85-.7.83a.92.92,0,0,1,.12-.25,5.81,5.81,0,0,1,.47-.67,6.9,6.9,0,0,1,2.48-1.87,6.73,6.73,0,0,1,4.77-.35,7.22,7.22,0,0,1,4.57,4.13l-.44.08a21.91,21.91,0,0,1,4-12.72,16.62,16.62,0,0,1,9-6.44,16.13,16.13,0,0,1,9.06.14,13.4,13.4,0,0,1,5.3,3.06l.68.69.44.56A2.6,2.6,0,0,1,260.83,225.11Z"/><path class="cls-2" d="M291.05,224.17a25.59,25.59,0,0,0-3.23-1.72,12.8,12.8,0,0,0-15.48,4.69,23.63,23.63,0,0,0-1.73,3.22,3,3,0,0,1,.23-1,11.25,11.25,0,0,1,1.19-2.45A12.66,12.66,0,0,1,288,222.11a11.75,11.75,0,0,1,2.36,1.38A3.36,3.36,0,0,1,291.05,224.17Z"/><path class="cls-2" d="M332.35,240.15c-.09,0-.3-.9-1.1-2.17a8.55,8.55,0,0,0-10.06-3.63c-1.42.46-2.18,1-2.23,1s.14-.19.49-.45a7.85,7.85,0,0,1,1.61-.86,8.44,8.44,0,0,1,10.51,3.8,7.21,7.21,0,0,1,.69,1.69C332.37,239.91,332.38,240.14,332.35,240.15Z"/><path class="cls-8" d="M63.3,106.92H221.84c-1.94-3.72-9.63-13.33-13.74-14.18a14.41,14.41,0,0,0-11.84,2.9A44.26,44.26,0,0,0,181.13,76c-5.76-4.19-13-7-20-5.78S147.75,77.59,148,84.71a17.6,17.6,0,0,0-30.88,10.15,20.54,20.54,0,0,0-28.85,4.81,19.29,19.29,0,0,0-20.82,3.23Z"/><path class="cls-6" d="M208.11,92.66a14.42,14.42,0,0,0-11.84,2.91,44.36,44.36,0,0,0-15.13-19.64c-5.76-4.19-13-7-20-5.77S147.76,77.52,148,84.64a17.59,17.59,0,0,0-30.88,10.15A20.51,20.51,0,0,0,88.24,99.6a19.25,19.25,0,0,0-20.82,3.23s11-7.07,21.49,0c0,0,6.37-6.6,15.29-7.16a25.54,25.54,0,0,1,15.29,4s1.57-10.45,11.22-15.29,21.91,8.19,21.91,8.19.12-15.26,13.51-16.09,26.26,11.72,27.78,24.72C197.28,96.42,201.79,93.24,208.11,92.66Z"/><path class="cls-2" d="M63.3,106.92l1.3-1.31L66.23,104l1.06-1.06c.4-.35.82-.73,1.29-1.1a18.59,18.59,0,0,1,8-3.59,19.11,19.11,0,0,1,11.71,1.32l-.18,0a20.71,20.71,0,0,1,29.08-4.88l-.3.14a17.81,17.81,0,0,1,31.25-10.29l-.41.16a13.73,13.73,0,0,1,.53-3.92A15.37,15.37,0,0,1,150,77.19a17.91,17.91,0,0,1,2.66-3A19.74,19.74,0,0,1,156,71.79a18.62,18.62,0,0,1,3.85-1.53,19.92,19.92,0,0,1,4.15-.55,23.89,23.89,0,0,1,8.34,1.37,37.91,37.91,0,0,1,14.44,9.48,44.71,44.71,0,0,1,9.73,15l-.41-.11a14.73,14.73,0,0,1,10.22-3.2,8.71,8.71,0,0,1,2.82.58,12.43,12.43,0,0,1,2.41,1.52,34.86,34.86,0,0,1,4,3.82,49.23,49.23,0,0,1,6.48,8.64l.21.38h-.44L63.3,106.92l158.54-.26-.23.38a48.8,48.8,0,0,0-6.4-8.52,33.8,33.8,0,0,0-4-3.77,11.84,11.84,0,0,0-2.3-1.45,8.23,8.23,0,0,0-2.65-.54,14.15,14.15,0,0,0-9.85,3.09l-.28.22-.13-.33a43.93,43.93,0,0,0-9.61-14.82,37.54,37.54,0,0,0-14.23-9.37A23.46,23.46,0,0,0,164,70.21a18.79,18.79,0,0,0-4,.53,18.29,18.29,0,0,0-3.74,1.47A19.68,19.68,0,0,0,153,74.5a17.68,17.68,0,0,0-2.58,3,14.47,14.47,0,0,0-1.67,3.48,12.69,12.69,0,0,0-.52,3.76v.64l-.41-.48a17.4,17.4,0,0,0-30.52,10l0,.35L117,95a20.4,20.4,0,0,0-28.62,4.73l-.07.1-.1,0a18.92,18.92,0,0,0-11.55-1.36,18.41,18.41,0,0,0-8,3.5c-.47.36-.89.73-1.29,1.08l-1,1-1.65,1.58Z"/><path class="cls-8" d="M668.7,144.1H461.16c2.54-4.88,12.61-17.46,18-18.57a18.87,18.87,0,0,1,15.49,3.8,58,58,0,0,1,19.81-25.7c7.54-5.48,17-9.15,26.15-7.56s17.54,9.63,17.26,19a23,23,0,0,1,40.43,13.29,26.87,26.87,0,0,1,37.77,6.3,25.22,25.22,0,0,1,27.25,4.22Z"/><path class="cls-6" d="M479.14,125.43a18.82,18.82,0,0,1,15.49,3.81,58,58,0,0,1,19.81-25.71c7.54-5.48,17-9.15,26.15-7.56s17.55,9.64,17.27,19a23,23,0,0,1,40.43,13.29,26.89,26.89,0,0,1,37.77,6.3,25.21,25.21,0,0,1,27.25,4.23s-14.45-9.26-28.13,0c0,0-8.34-8.64-20-9.37a33.49,33.49,0,0,0-20,5.27s-2-13.68-14.68-20-28.69,10.73-28.69,10.73-.15-20-17.68-21.07-34.37,15.35-36.37,32.36C493.31,130.36,487.42,126.19,479.14,125.43Z"/><path class="cls-2" d="M668.7,144.1l-1.79-1.72c-.59-.56-1.31-1.25-2.16-2.08L663.37,139c-.52-.45-1.07-.94-1.68-1.42A24.54,24.54,0,0,0,651.27,133a24.9,24.9,0,0,0-15.14,1.77l-.11.05-.07-.09a27,27,0,0,0-15.7-10.6,26.44,26.44,0,0,0-11-.25,27.13,27.13,0,0,0-10.86,4.63l-.28.2,0-.34a23.5,23.5,0,0,0-14.42-19.49,23.33,23.33,0,0,0-25.64,6.34l-.42.47V115a17.41,17.41,0,0,0-.68-5,19.83,19.83,0,0,0-2.2-4.57,23.66,23.66,0,0,0-3.4-3.89,22.23,22.23,0,0,0-9.19-4.94,25.41,25.41,0,0,0-5.3-.7,30.42,30.42,0,0,0-10.72,1.77A49.14,49.14,0,0,0,507.48,110a57.74,57.74,0,0,0-12.59,19.43l-.13.33-.28-.22a18.7,18.7,0,0,0-13-4.07,11.25,11.25,0,0,0-3.5.72,11.43,11.43,0,0,0-1.56.87,16.77,16.77,0,0,0-1.46,1,45.32,45.32,0,0,0-5.23,4.94c-1.61,1.76-3.13,3.58-4.55,5.44a46.68,46.68,0,0,0-3.84,5.74l-.23-.38,207.54.26-207.54.26h-.43l.2-.38a48.34,48.34,0,0,1,3.89-5.82c1.43-1.87,3-3.7,4.58-5.47a44,44,0,0,1,5.29-5,16.24,16.24,0,0,1,1.5-1.07,9.35,9.35,0,0,1,5.3-1.67,19.22,19.22,0,0,1,13.32,4.18l-.41.11a58.67,58.67,0,0,1,12.71-19.6A49.69,49.69,0,0,1,526,97.25a31.07,31.07,0,0,1,10.89-1.79,26.48,26.48,0,0,1,5.41.72,24.62,24.62,0,0,1,5,2,25.24,25.24,0,0,1,4.37,3.07,23.88,23.88,0,0,1,3.47,4,20.18,20.18,0,0,1,2.25,4.71,17.68,17.68,0,0,1,.7,5.1l-.42-.16a23,23,0,0,1,36.45,1.75,23.36,23.36,0,0,1,4.35,11.68l-.3-.14a27.56,27.56,0,0,1,11-4.68,26.75,26.75,0,0,1,11.12.28,27.34,27.34,0,0,1,15.86,10.77l-.17-.05a25.13,25.13,0,0,1,15.31-1.73,24.28,24.28,0,0,1,10.46,4.69c.61.48,1.16,1,1.68,1.44l1.39,1.37,2.13,2.13Z"/><path class="cls-2" d="M564,124.76a2.07,2.07,0,0,1,.33-.48l.43-.56.68-.69a13.21,13.21,0,0,1,5.31-3.06,16.15,16.15,0,0,1,9.07-.15,16.71,16.71,0,0,1,9,6.45,21.91,21.91,0,0,1,4,12.74l-.45-.09a7.21,7.21,0,0,1,4.58-4.13,6.77,6.77,0,0,1,4.78.35,6.84,6.84,0,0,1,2.47,1.87,5,5,0,0,1,.48.67c.09.16.13.25.12.26s-.23-.31-.71-.83a7.16,7.16,0,0,0-2.47-1.73,6.57,6.57,0,0,0-4.56-.23,6.88,6.88,0,0,0-4.26,3.94l-.44,1.1V139a21.73,21.73,0,0,0-4-12.42,16.35,16.35,0,0,0-8.7-6.3,16,16,0,0,0-8.83,0,13.6,13.6,0,0,0-5.28,2.86l-.7.65-.47.52A3,3,0,0,1,564,124.76Z"/><path class="cls-2" d="M533.74,123.82a3.36,3.36,0,0,1,.73-.68,11.29,11.29,0,0,1,2.36-1.38,12.69,12.69,0,0,1,15.95,4.83,11.07,11.07,0,0,1,1.19,2.46,3.27,3.27,0,0,1,.24,1,24.59,24.59,0,0,0-1.74-3.22,12.81,12.81,0,0,0-15.5-4.7A25.59,25.59,0,0,0,533.74,123.82Z"/><path class="cls-2" d="M492.39,139.82a1.62,1.62,0,0,1,.09-.67,7.32,7.32,0,0,1,.7-1.69,8.44,8.44,0,0,1,10.51-3.8,7.71,7.71,0,0,1,1.62.86c.35.26.51.43.49.46s-.81-.51-2.23-1a8.57,8.57,0,0,0-10.08,3.64C492.69,138.91,492.48,139.85,492.39,139.82Z"/><path class="cls-2" d="M87.64,372.4a7.09,7.09,0,0,1,1.87,1.42,19.84,19.84,0,0,1,5.66,9.7,7.1,7.1,0,0,1,.32,2.32,33.94,33.94,0,0,0-2.9-7.32A32.79,32.79,0,0,0,87.64,372.4Z"/><path class="cls-2" d="M101.81,365.49a26.9,26.9,0,0,1-.78,2.87,54.92,54.92,0,0,0-2,14.11,20.51,20.51,0,0,1-.07,3,13.2,13.2,0,0,1-.3-3,42.47,42.47,0,0,1,.41-7.2,41.6,41.6,0,0,1,1.65-7A12.1,12.1,0,0,1,101.81,365.49Z"/><path class="cls-2" d="M107.47,377c.12.11-1.36,1.81-2.61,4.26s-1.77,4.65-1.93,4.61a14.29,14.29,0,0,1,4.54-8.87Z"/><path class="cls-2" d="M225,385.89c-.16,0-.63-2.25-1.89-4.78s-2.76-4.3-2.64-4.41a14.54,14.54,0,0,1,4.53,9.19Z"/><path class="cls-2" d="M226.52,360.43c.14,0,1,5.6,1.83,12.55s1.45,12.59,1.31,12.61-1-5.6-1.83-12.55S226.38,360.45,226.52,360.43Z"/><path class="cls-2" d="M236.7,374.29a43.18,43.18,0,0,0-2.1,5.32,42.57,42.57,0,0,0-.86,5.66,14.41,14.41,0,0,1,3-11Z"/><path class="cls-2" d="M303.42,370.47a9.92,9.92,0,0,1,1.75,1.79,30.52,30.52,0,0,1,5.75,10.58,8.64,8.64,0,0,1,.54,2.44,18.12,18.12,0,0,1-.89-2.32,40.47,40.47,0,0,0-5.69-10.47A16.3,16.3,0,0,1,303.42,370.47Z"/><path class="cls-2" d="M315.59,366.14a21.15,21.15,0,0,1-.11,2.87,62.72,62.72,0,0,0,0,6.89,66.31,66.31,0,0,0,.78,6.85,22.65,22.65,0,0,1,.45,2.84,12,12,0,0,1-.81-2.77,44.28,44.28,0,0,1-.79-13.84A13,13,0,0,1,315.59,366.14Z"/><path class="cls-2" d="M323.93,376.25c.13.08-1,2-1.95,4.53s-1.44,4.69-1.59,4.67a13,13,0,0,1,1.1-4.86A12.77,12.77,0,0,1,323.93,376.25Z"/><path class="cls-2" d="M386.46,370.34a9.2,9.2,0,0,1,1.75,1.78A30.76,30.76,0,0,1,394,382.7a9.38,9.38,0,0,1,.55,2.45,17,17,0,0,1-.9-2.33,42.5,42.5,0,0,0-2.46-5.44,41.7,41.7,0,0,0-3.23-5A17.78,17.78,0,0,1,386.46,370.34Z"/><path class="cls-2" d="M398.63,366a21.16,21.16,0,0,1-.11,2.87,59.93,59.93,0,0,0,.79,13.73,23.89,23.89,0,0,1,.44,2.84,12.36,12.36,0,0,1-.81-2.77,44.2,44.2,0,0,1-.79-13.83A13,13,0,0,1,398.63,366Z"/><path class="cls-2" d="M407,376.12c.14.08-1,2-2,4.52s-1.44,4.7-1.59,4.67a17.27,17.27,0,0,1,3.54-9.19Z"/><path class="cls-2" d="M670.51,370.34a8.73,8.73,0,0,1,1.76,1.78,30.51,30.51,0,0,1,3.39,5A30,30,0,0,1,678,382.7a9.38,9.38,0,0,1,.55,2.45,16.31,16.31,0,0,1-.89-2.33A40.91,40.91,0,0,0,672,372.35,17.26,17.26,0,0,1,670.51,370.34Z"/><path class="cls-2" d="M682.69,366a22.51,22.51,0,0,1-.12,2.87,65.3,65.3,0,0,0,0,6.89,63.1,63.1,0,0,0,.79,6.84,21.54,21.54,0,0,1,.44,2.84,12.75,12.75,0,0,1-.8-2.77,44,44,0,0,1-1-6.88,45.56,45.56,0,0,1,.15-6.95A11.87,11.87,0,0,1,682.69,366Z"/><path class="cls-2" d="M691,376.12c.13.08-1,2-2,4.52s-1.43,4.7-1.59,4.67a12.83,12.83,0,0,1,1.11-4.85A12.64,12.64,0,0,1,691,376.12Z"/><path class="cls-7" d="M143.69,335.11a9.51,9.51,0,0,1,4.92,5.57,16.72,16.72,0,0,1,.65,7.54c-.55,4.89-3.33,9.83-6.33,13.74-4.12-3.59-5.07-9.87-5.35-13.08-.44-5.08,1.84-14.52,6.11-13.77"/><path class="cls-7" d="M147.72,370a8.07,8.07,0,0,1,2.62-7.69,10.77,10.77,0,0,1,7.92-2.48,4.53,4.53,0,0,1,3.48,1.57,3.45,3.45,0,0,1,0,3.5,7,7,0,0,1-2.59,2.56c-3.57,2.24-7.44,3.75-11.48,2.54"/><path class="cls-2" d="M142.44,385a5.22,5.22,0,0,1,.14-1c.13-.71.3-1.62.5-2.72a28.42,28.42,0,0,1,2.81-8.68,17.38,17.38,0,0,1,6.23-6.62,11.6,11.6,0,0,1,2.54-1.12,5.71,5.71,0,0,1,.73-.19l.26,0a18.82,18.82,0,0,0-3.4,1.57,17.91,17.91,0,0,0-6.05,6.57,30.74,30.74,0,0,0-2.87,8.56c-.25,1.14-.45,2.06-.61,2.7A6.05,6.05,0,0,1,142.44,385Z"/><path class="cls-2" d="M142.59,342.46a1.53,1.53,0,0,1,0,.44c0,.33.05.74.08,1.26.06,1.1.12,2.68.18,4.64.13,3.92.23,9.34.21,15.33s-.18,11.41-.34,15.33c-.08,2-.16,3.54-.22,4.64q-.06.76-.09,1.26a2.19,2.19,0,0,1-.05.44,1.59,1.59,0,0,1,0-.45c0-.32,0-.74,0-1.26,0-1.14.06-2.71.11-4.64.1-3.92.2-9.34.23-15.32s0-11.4-.1-15.32c0-1.93-.05-3.5-.07-4.64V342.9A2.12,2.12,0,0,1,142.59,342.46Z"/><path class="cls-7" d="M140.59,373a18.89,18.89,0,0,0-10.33-13.86c-1.38-.66-3.18-1.09-4.31-.07s-.88,2.87-.32,4.29a16.15,16.15,0,0,0,14.87,10"/><path class="cls-2" d="M130.93,363.8a4.66,4.66,0,0,1,.87.38,7.66,7.66,0,0,1,1,.53c.37.23.82.45,1.26.78a17.09,17.09,0,0,1,1.44,1.09A19.07,19.07,0,0,1,137,368a21.16,21.16,0,0,1,2.91,3.74,20.26,20.26,0,0,1,1.91,4.33,17.34,17.34,0,0,1,.49,2,15.81,15.81,0,0,1,.25,1.78,13.23,13.23,0,0,1,.06,1.48,7.73,7.73,0,0,1,0,1.12,5.18,5.18,0,0,1-.1.95c-.08,0,.06-1.36-.18-3.52-.08-.54-.14-1.14-.29-1.76a19.14,19.14,0,0,0-.51-2,21,21,0,0,0-1.91-4.25,21.62,21.62,0,0,0-2.84-3.69c-.5-.51-1-1-1.48-1.4s-1-.77-1.4-1.1C132.13,364.43,130.89,363.87,130.93,363.8Z"/><path class="cls-2" d="M346,461.17a9.92,9.92,0,0,1,1.75,1.79,30.52,30.52,0,0,1,5.75,10.58A9.44,9.44,0,0,1,354,476a17.1,17.1,0,0,1-.9-2.32,41.78,41.78,0,0,0-2.46-5.45,42.83,42.83,0,0,0-3.22-5A15.86,15.86,0,0,1,346,461.17Z"/><path class="cls-2" d="M358.14,456.84a25,25,0,0,1-.12,2.87,60.06,60.06,0,0,0,.79,13.74,23.57,23.57,0,0,1,.44,2.84,12.59,12.59,0,0,1-.81-2.77,44.28,44.28,0,0,1-.79-13.84A12,12,0,0,1,358.14,456.84Z"/><path class="cls-2" d="M366.47,467c.14.08-1,2-2,4.53s-1.44,4.69-1.59,4.67a13,13,0,0,1,1.1-4.86A13.31,13.31,0,0,1,366.47,467Z"/><path class="cls-9" d="M514.15,446.2a5.52,5.52,0,0,1,2.88,3.27,9.86,9.86,0,0,1,.39,4.42A17.41,17.41,0,0,1,513.7,462c-2.42-2.11-3-5.79-3.14-7.68-.26-3,1.08-8.53,3.59-8.08"/><path class="cls-9" d="M516.51,466.7a4.78,4.78,0,0,1,1.54-4.52,6.27,6.27,0,0,1,4.65-1.45,2.67,2.67,0,0,1,2,.92,2,2,0,0,1,0,2.06,4.13,4.13,0,0,1-1.52,1.5c-2.1,1.31-4.37,2.2-6.74,1.49"/><path class="cls-2" d="M513.41,475.51a3.77,3.77,0,0,1,.09-.59c.07-.42.17-.95.29-1.6a16.61,16.61,0,0,1,1.65-5.09,10.25,10.25,0,0,1,3.65-3.89,6.89,6.89,0,0,1,1.49-.66c.19-.06.34-.08.43-.11s.15,0,.16,0a10.7,10.7,0,0,0-2,.92,10.44,10.44,0,0,0-3.55,3.86,18,18,0,0,0-1.69,5c-.14.67-.26,1.21-.35,1.58A4.55,4.55,0,0,1,513.41,475.51Z"/><path class="cls-2" d="M513.5,450.51a.9.9,0,0,1,0,.26c0,.19,0,.44.05.74,0,.64.07,1.57.1,2.72.08,2.31.14,5.49.12,9s-.1,6.7-.19,9c-.05,1.15-.1,2.08-.14,2.72,0,.3,0,.55-.05.74a.9.9,0,0,1,0,.26,1,1,0,0,1,0-.26c0-.19,0-.44,0-.74,0-.67,0-1.6.07-2.73.06-2.3.12-5.48.13-9s0-6.69-.05-9c0-1.13,0-2.06,0-2.73v-.74A1,1,0,0,1,513.5,450.51Z"/><path class="cls-9" d="M512.33,468.45a11.09,11.09,0,0,0-6.07-8.14,1.84,1.84,0,0,0-2.72,2.48,9.49,9.49,0,0,0,8.73,5.89"/><path class="cls-2" d="M506.65,463a3.21,3.21,0,0,1,.52.23,5.81,5.81,0,0,1,.58.31c.21.13.48.27.74.46s.55.39.84.64a10.77,10.77,0,0,1,.9.81,11.36,11.36,0,0,1,2.83,4.74,10.62,10.62,0,0,1,.29,1.18,9,9,0,0,1,.14,1.05,6.86,6.86,0,0,1,0,.87,4.45,4.45,0,0,1,0,.66,2.14,2.14,0,0,1-.06.56c-.05,0,0-.8-.11-2.07,0-.32-.08-.67-.16-1a11.7,11.7,0,0,0-.3-1.16,12.61,12.61,0,0,0-1.12-2.49,12.79,12.79,0,0,0-1.67-2.17c-.3-.3-.58-.58-.87-.82s-.56-.46-.82-.65C507.36,463.41,506.63,463.08,506.65,463Z"/><path class="cls-2" d="M427.81,456.09a14.46,14.46,0,0,1,1.56,2.56,67.58,67.58,0,0,1,3.08,6.57,68.6,68.6,0,0,1,2.36,6.85,14.34,14.34,0,0,1,.66,2.93,22,22,0,0,1-1-2.82c-.59-1.75-1.44-4.15-2.5-6.76s-2.12-4.93-2.92-6.6A20.59,20.59,0,0,1,427.81,456.09Z"/><path class="cls-2" d="M441.51,448.94c.09,0-.32,1.51-.8,3.93a56.45,56.45,0,0,0-.44,19.17c.36,2.45.7,3.94.61,4a4.66,4.66,0,0,1-.33-1c-.19-.66-.42-1.65-.64-2.87a47.56,47.56,0,0,1-.76-9.68,48.15,48.15,0,0,1,1.2-9.63c.29-1.21.56-2.18.78-2.84A4.45,4.45,0,0,1,441.51,448.94Z"/><path class="cls-2" d="M449.74,462.21c.14.08-1.61,2.94-3,6.78s-2,7.14-2.12,7.12a7.29,7.29,0,0,1,.22-2.19,31.38,31.38,0,0,1,3.66-9.91A7,7,0,0,1,449.74,462.21Z"/><path class="cls-2" d="M568.68,475.91a43.73,43.73,0,0,0-2-5.37,44.87,44.87,0,0,0-3.14-4.79,12,12,0,0,1,3.61,4.56A12.12,12.12,0,0,1,568.68,475.91Z"/><path class="cls-2" d="M568.84,457.22a12.64,12.64,0,0,1,1.12,2.56,49.53,49.53,0,0,1,1.87,6.49,50.21,50.21,0,0,1,1,6.67,13,13,0,0,1,0,2.8,18.47,18.47,0,0,1-.41-2.76c-.23-1.7-.59-4.05-1.14-6.6s-1.21-4.84-1.71-6.48A19.85,19.85,0,0,1,568.84,457.22Z"/><circle class="cls-9" cx="122.85" cy="183.1" r="19.68" transform="translate(-48.26 44.03) rotate(-17.04)"/><g class="cls-10"><path class="cls-6" d="M118.56,188.19a3.21,3.21,0,1,1-2.09-4A3.21,3.21,0,0,1,118.56,188.19Z"/></g><g class="cls-10"><path class="cls-6" d="M117,178a1.87,1.87,0,1,1-1.22-2.34A1.87,1.87,0,0,1,117,178Z"/></g><path class="cls-2" d="M103.2,181.93c0,.35-21,10.76-17.92,15.37s23.3,1.66,42-5.69,37-17.7,34.46-22.75-24.78.54-24.78.54l1.78,2.13s13.56-3.69,16.25.25-10.95,11.7-28.6,17.65-33.84,8.95-35.09,5.4,11.93-9.93,11.93-9.93Z"/><g class="cls-10"><path class="cls-6" d="M116.67,166.62c.09.23-1.52.91-3.64,2.62a18.14,18.14,0,0,0-6.36,18.87c.65,2.65,1.53,4.16,1.31,4.29s-1.37-1.25-2.34-4a16.91,16.91,0,0,1-.94-5,17.81,17.81,0,0,1,.88-6.18,17.53,17.53,0,0,1,3-5.46,16.79,16.79,0,0,1,3.76-3.41C114.82,166.78,116.62,166.46,116.67,166.62Z"/></g><path class="cls-9" d="M635.51,449.15l1.15,20.1s-20,7.91-20.19,11.65l39-.83-.5-31.38Z"/><path class="cls-11" d="M648.7,467.3a1.6,1.6,0,0,1,1.14,1.8,1.53,1.53,0,0,1-1.77,1.14,1.66,1.66,0,0,1-1.2-1.9,1.58,1.58,0,0,1,2-1"/><g class="cls-12"><path class="cls-6" d="M655.51,480.07l-.17-3.16-37.37,2s-1.73.79-1.5,2Z"/></g><path class="cls-2" d="M636,469.06c0,.19,1,.26,1.92.85s1.47,1.39,1.64,1.31-.13-1.18-1.3-1.88S636,468.89,636,469.06Z"/><path class="cls-2" d="M632,470.84c0,.19.79.49,1.46,1.29s.87,1.64,1.06,1.63.29-1.1-.56-2.07S632,470.66,632,470.84Z"/><path class="cls-2" d="M629.74,475.79c.17,0,.42-.92-.09-2s-1.42-1.43-1.49-1.27.48.7.89,1.56S629.55,475.78,629.74,475.79Z"/><path class="cls-2" d="M636.27,464.45c.08.17,1-.11,2-.06s1.93.38,2,.21-.72-.83-2-.87S636.17,464.3,636.27,464.45Z"/><path class="cls-9" d="M608.69,449.92,610.46,470s-19.79,8.54-19.82,12.27l39-2-1.48-31.35Z"/><path class="cls-11" d="M622.43,467.65a1.6,1.6,0,0,1,1.2,1.76,1.54,1.54,0,0,1-1.74,1.2,1.67,1.67,0,0,1-1.25-1.87,1.59,1.59,0,0,1,1.94-1.05"/><g class="cls-12"><path class="cls-6" d="M629.64,480.2l-.27-3.15-37.29,3.14s-1.7.84-1.44,2.05Z"/></g><path class="cls-2" d="M609.82,469.81c0,.19,1,.22,1.94.79s1.51,1.33,1.68,1.25-.17-1.17-1.36-1.83S609.77,469.63,609.82,469.81Z"/><path class="cls-2" d="M605.81,471.71c0,.19.81.47,1.5,1.24s.92,1.61,1.11,1.6.25-1.11-.62-2.05S605.81,471.53,605.81,471.71Z"/><path class="cls-2" d="M603.75,476.73c.17,0,.39-.93-.16-2s-1.45-1.39-1.53-1.22.51.69,1,1.53S603.56,476.72,603.75,476.73Z"/><path class="cls-2" d="M609.92,465.19c.09.17,1-.14,2-.12s1.94.31,2,.14-.76-.8-2-.8S609.82,465.05,609.92,465.19Z"/><path class="cls-2" d="M651.46,307.38s-43.38,11.75-44.73,12.19l-1.3,3.83c-.27,1.1-9,42.73-13.09,62.19a48.72,48.72,0,0,0-.06,19.69l12.91,63.64,25.42,0-8.37-72.2s24.53-58.76,25.68-60.23S659.45,324.15,651.46,307.38Z"/><polygon class="cls-2" points="650.24 327.54 658.38 464.94 633.83 464.89 625.97 399.53 620.12 366.91 626.56 326.09 650.24 327.54"/><path class="cls-9" d="M653,328.05a7.86,7.86,0,0,1-.48,1.48,24.06,24.06,0,0,1-2.16,3.92c-.53.81-1.16,1.7-1.88,2.64-.36.47-.74,1-1.15,1.46a5.66,5.66,0,0,0-1,1.68c-1.13,2.52-2.35,5.44-3.7,8.67l-9.46,22.88q-2.67,6.51-5.59,13.65l-3,7.26c-.25.61-.5,1.23-.76,1.85a15.48,15.48,0,0,0-.68,1.86,8.69,8.69,0,0,0-.15,3.93h0c.32,2.76.65,5.69,1,8.66,2.66,23.79,5.07,45.32,6.81,60.93l0,.21h-.2L612,469,607,469l-1.31,0-.45,0a2.56,2.56,0,0,1,.45,0l1.31,0,5.06,0,18.6-.05-.19.2c-1.78-15.61-4.24-37.13-6.95-60.91-.34-3-.67-5.9-1-8.66v0a9.27,9.27,0,0,1,.16-4.16,14.08,14.08,0,0,1,.71-1.92l.76-1.86q1.51-3.69,3-7.25c1.95-4.74,3.83-9.3,5.62-13.63,3.59-8.66,6.81-16.39,9.56-22.84,1.38-3.23,2.62-6.14,3.78-8.66a5.75,5.75,0,0,1,1.07-1.72c.41-.49.79-1,1.16-1.44.73-.93,1.36-1.81,1.9-2.61a25.54,25.54,0,0,0,2.23-3.85C652.84,328.56,653,328,653,328.05Z"/><path class="cls-13" d="M544,256.79l8.73-9,13,25.86.74-2.69,10,3.57s-5.17,19.53-6.78,20.25-14.35-1.27-15.75-3.85S544,256.79,544,256.79Z"/><path class="cls-2" d="M577.55,205.29a33.17,33.17,0,0,0,.3-7.51,11.26,11.26,0,0,0-2.92-6.78c-1-1-2.33-1.81-3.26-2.94-1.28-1.56-1.81-3.77-3.49-4.89-2.62-1.76-6.12.17-9.26-.09-2.45-.21-4.69-1.78-7.15-1.67-2.14.1-4,1.46-5.57,2.94s-3,3.15-4.89,4.16a41.68,41.68,0,0,1-4.3,1.6,6,6,0,0,0-3.46,2.84c-.63,1.39-.15,3.35,1.29,3.88-2.67.5-4.1,3.88-3.13,6.42s3.73,4.06,6.44,4.26a16.3,16.3,0,0,0,7.84-1.84c7-3.23,13.19-8.63,16.12-15.74"/><path class="cls-13" d="M572.67,196.87l18.07,33.77c3.08,5.74-.34,19.63-6.23,22.42h0c-5.49,2.6-9-.77-11.81-6.13-1.36-2.54-4.55-10.21-4.71-10.47,0,0-9,3.8-14.2-4.38-2.51-4-7-12.51-11-20.3a18,18,0,0,1,6.62-23.53l.79-.49C559.12,183,568.13,187.86,572.67,196.87Z"/><path class="cls-14" d="M568,236.46a23.39,23.39,0,0,0,8.78-9.77s1.05,8.09-7.63,12.41Z"/><path class="cls-2" d="M548.52,218.68c.24.07.73-1.14,2-1.92s2.58-.71,2.62-.95-.29-.3-.88-.34A3.76,3.76,0,0,0,550,216a3.7,3.7,0,0,0-1.47,1.72C548.37,218.3,548.41,218.66,548.52,218.68Z"/><path class="cls-2" d="M561.23,210.61a1.4,1.4,0,0,0,1.87.49,1.32,1.32,0,0,0,.55-1.81,1.37,1.37,0,0,0-1.86-.49A1.32,1.32,0,0,0,561.23,210.61Z"/><path class="cls-2" d="M559.18,206.75c.24.06.73-1.15,2-1.92s2.59-.72,2.63-1-.29-.29-.88-.34a3.78,3.78,0,0,0-2.22.58,3.64,3.64,0,0,0-1.47,1.72C559,206.37,559.06,206.73,559.18,206.75Z"/><path class="cls-2" d="M560.86,219.53a9.42,9.42,0,0,0-2.28.89c-.35.17-.69.29-.88.11a2,2,0,0,1-.38-1.1c-.17-1-.36-2-.56-3.05-.83-4.32-1.64-7.79-1.81-7.76s.35,3.57,1.18,7.89c.22,1.06.42,2.08.61,3a2.22,2.22,0,0,0,.62,1.38,1,1,0,0,0,.82.14,2.4,2.4,0,0,0,.6-.26A9.89,9.89,0,0,0,560.86,219.53Z"/><path class="cls-2" d="M565.13,218.11c-.22.11.63,1.49,0,3.19s-2.13,2.45-2,2.65.49.06,1.12-.3a4,4,0,0,0,1.74-2.13,3.54,3.54,0,0,0-.14-2.62C565.58,218.29,565.22,218,565.13,218.11Z"/><path class="cls-2" d="M556.29,202.55c.34.26,1.5-.68,3.1-1.41s3.05-1.07,3.05-1.5c0-.21-.41-.4-1.1-.44a5.79,5.79,0,0,0-2.6.57,5.61,5.61,0,0,0-2.08,1.65C556.25,202,556.14,202.42,556.29,202.55Z"/><path class="cls-2" d="M546.58,214.48c.4.15,1.09-.68,2.13-1.34s2.06-1,2.08-1.43c0-.2-.32-.4-.88-.43a3.63,3.63,0,0,0-3.38,2.23C546.34,214,546.4,214.4,546.58,214.48Z"/><path class="cls-13" d="M575.75,203.38c.1-.14,4.63-5.16,7.92.59s-3.16,7.86-3.26,7.7S575.75,203.38,575.75,203.38Z"/><path class="cls-14" d="M580.92,208.49s.14,0,.35,0a1.18,1.18,0,0,0,.76-.41,2.85,2.85,0,0,0-.13-2.88,3.71,3.71,0,0,0-1.1-1.27,1.34,1.34,0,0,0-1.19-.34.59.59,0,0,0-.44.61c0,.21.12.3.1.33s-.18,0-.27-.29a.76.76,0,0,1,0-.49.85.85,0,0,1,.47-.46,1.58,1.58,0,0,1,1.55.29,3.93,3.93,0,0,1,1.27,1.4,3,3,0,0,1,0,3.32,1.21,1.21,0,0,1-1,.37C581,208.62,580.9,208.51,580.92,208.49Z"/><path class="cls-2" d="M538,204.17c1.89,1.87,7.61.75,11.13-1.92,3.24-2.45,3.71-5.26,5.28-8.14,1-1.82,1-1.82,3.3-3,1.87-.91,4.14.44,6.08,1.18,1,5.17,4.93,9.18,8.7,12.86a2.58,2.58,0,0,0,1.45.9c1,.1,1.73-.91,1.94-1.88a8.14,8.14,0,0,0-.73-4.61,27.37,27.37,0,0,0-5.68-9.11,18.59,18.59,0,0,0-9.24-5.29,17.62,17.62,0,0,0-12.93,2.49,21.6,21.6,0,0,0-8.3,10.37,12.75,12.75,0,0,0-1,6.11"/><path class="cls-7" d="M587.55,224.25s-10.74,22.69-14.29,21.9c-.71-.16-2.41-3.8-2.41-3.8l-3.16,10.35s24.48,40.28,29.13,47.37a44.54,44.54,0,0,1,4.37,8.16c.74,1.9,1.06,7,2.94,7.91h0l-.12,8.1s33.43,12.26,53.46-2.69l-1.56-7.38S642,278.49,637.3,269.87c-1.32-2.41-12.19-26.25-27.42-35.84C596.63,225.69,587.55,224.25,587.55,224.25Z"/><path class="cls-7" d="M568,253c-.77.6-3.05,18.26-3.05,18.26l15.82,6.32.84-11Z"/><path class="cls-13" d="M531,272l35.25,7.42,10.33-14.83,18.21,13.05S584.46,290,578,296a8.68,8.68,0,0,1-7.78,2.27c-3.38-.8-43.38-16.15-43.38-16.15Z"/><path class="cls-14" d="M531,272s-.08.24-.26.69l-.78,2c-.69,1.73-1.71,4.25-3,7.5l-.07-.17,27.88,10.48,9.15,3.37c1.58.57,3.2,1.16,4.85,1.71a10.83,10.83,0,0,0,2.49.63,7.71,7.71,0,0,0,2.57-.2,9.69,9.69,0,0,0,4.53-2.68c1.34-1.25,2.64-2.58,3.94-3.94,2.6-2.72,5.17-5.59,7.75-8.54q2.32-2.67,4.56-5.34l0,.38c-6.36-4.57-12.47-9-18.2-13.06l.35-.06-10.36,14.81-.08.12-.14,0-25.54-5.49-7.13-1.55-1.88-.43L531,272l.62.1,1.86.37,7.11,1.44,25.7,5.3-.22.09,10.31-14.85.14-.21.2.15,18.22,13,.22.16-.18.22c-1.48,1.77-3,3.56-4.56,5.34-2.58,2.95-5.15,5.83-7.76,8.56-1.31,1.36-2.62,2.69-4,3.95a10.12,10.12,0,0,1-4.75,2.8,8.18,8.18,0,0,1-2.74.21,11.66,11.66,0,0,1-2.6-.66c-1.66-.56-3.27-1.15-4.86-1.73l-9.14-3.4c-11.68-4.41-21.31-8.13-27.81-10.66l-.13-.05,0-.12c1.38-3.25,2.45-5.77,3.18-7.51.36-.82.63-1.46.83-1.91S531,272,531,272Z"/><path class="cls-13" d="M551.11,244.2s-8.47-9.57-11.47-10.39-13.39,1.55-13.47,2.87,1.49,3.25,1.49,3.25-3,.68-3.36,1.72a3.23,3.23,0,0,0-.09,2l4.16.89,4.35,2.78a5.25,5.25,0,0,0,1.86,3,31.79,31.79,0,0,0,8.16,3.36l1.85,4.9,9.43-8.09Z"/><path class="cls-7" d="M588.76,240.57c-.39.6-17.53,27.89-17.53,27.89s17,10.57,25.1,10.93l6.69-8.73,10.36-16s3.47-11.34-1.43-16.42C606,232.07,595.91,229.64,588.76,240.57Z"/><path class="cls-2" d="M569.07,256.12s0,0,0,0a0,0,0,0,1,0,0c.1-.07.06,0,.08,0l0,0,.19.22c.14.2.34.5.57.88.46.75,1.06,1.81,1.69,3a23.09,23.09,0,0,1,2,4.42,23.34,23.34,0,0,1-2.51-4.17c-.63-1.19-1.18-2.28-1.56-3.08-.19-.39-.33-.72-.42-.95s-.08-.21-.1-.27v0s0,0,.05,0,0,0,0,0S569.08,256.12,569.07,256.12Z"/><path class="cls-7" d="M613.38,254.68,602.6,270.32l-6.27,9.07c-8.06-.36-25.1-10.93-25.1-10.93s17.14-27.29,17.53-27.89c0,0,7.14-12,17-6.93"/><path class="cls-2" d="M605.73,233.64a1.09,1.09,0,0,1-.26-.08l-.74-.29a10,10,0,0,0-7.67,0,16,16,0,0,0-5.2,3.67,23,23,0,0,0-2.38,2.87c-.73,1.07-1.42,2.26-2.18,3.45L582.51,251c-3.39,5.4-7.12,11.36-11.06,17.62l-.08-.35,1.87,1.11c4,2.33,7.9,4.43,11.75,6.21s7.66,3.29,11.35,3.6l-.2.1c5.1-7.32,9.38-13.47,12.42-17.82l3.53-5,.94-1.31a5,5,0,0,1,.35-.44,3.65,3.65,0,0,1-.28.48c-.23.34-.52.79-.89,1.36-.82,1.2-2,2.92-3.43,5.08l-12.26,17.92-.08.11h-.13c-3.83-.3-7.64-1.88-11.53-3.6s-7.84-3.89-11.81-6.22l-1.87-1.12-.23-.14.14-.22,11.1-17.6,4.83-7.65c.77-1.19,1.46-2.35,2.22-3.45a22.83,22.83,0,0,1,2.45-2.9,16.14,16.14,0,0,1,5.35-3.67,10,10,0,0,1,4.83-.69,9.67,9.67,0,0,1,3,.82l.72.33C605.66,233.59,605.74,233.63,605.73,233.64Z"/><path class="cls-7" d="M605.71,312.78a109.38,109.38,0,0,0,24.45-8.19"/><path class="cls-2" d="M630.16,304.59a3.7,3.7,0,0,1-.88.52c-.58.31-1.43.72-2.5,1.2a86.35,86.35,0,0,1-8.52,3.34,90.12,90.12,0,0,1-8.82,2.47c-1.14.25-2.07.44-2.72.54a4.23,4.23,0,0,1-1,.12,33.57,33.57,0,0,1,3.64-1c2.26-.59,5.37-1.47,8.74-2.6s6.38-2.3,8.55-3.18A34,34,0,0,1,630.16,304.59Z"/><path class="cls-7" d="M611.88,316.13a108.51,108.51,0,0,0,34.65-5.54"/><path class="cls-2" d="M646.53,310.59a7.39,7.39,0,0,1-1.29.52c-.84.31-2.07.71-3.6,1.17A98,98,0,0,1,629.47,315a96.49,96.49,0,0,1-12.42,1.18c-1.6.05-2.89.05-3.78,0a6.68,6.68,0,0,1-1.39-.1,8.32,8.32,0,0,1,1.39-.11c.89,0,2.17-.09,3.76-.18,3.18-.18,7.57-.56,12.36-1.32s9.08-1.78,12.15-2.6c1.54-.41,2.78-.75,3.64-1A7.07,7.07,0,0,1,646.53,310.59Z"/><g class="cls-10"><path d="M587.83,285.75c2.81-.56,4.61-1.32,7.42-1.88a12,12,0,0,0,3.54-1.08,10.54,10.54,0,0,0,2.75-2.41,40.92,40.92,0,0,0,9.86-22.68l-15.07,21.69-2.67-.3Z"/></g><g class="cls-10"><path d="M607.6,314.78l-1.2.05a61.34,61.34,0,0,0,29.46-1.08c2-.58,4.12-1.35,5.37-3A181.27,181.27,0,0,1,607.6,314.78Z"/></g><path class="cls-11" d="M480.57,259.33,479,247.75s-7.11,5.1-7.11,5.26v6.64Z"/><rect class="cls-11" x="487.47" y="241.88" width="2.78" height="26.46" transform="translate(39.81 575.15) rotate(-63.03)"/><path class="cls-2" d="M500,262.35a4.73,4.73,0,0,1,.29-.69l.87-1.84.05.15c-4.12-2-13.18-6.54-23.65-11.87h0l.35-.11h0v0l0,0,0,.08-.08.16-.17.31-.32.63c-.21.42-.41.82-.62,1.22l-.11-.35c6.58,3.35,12.41,6.38,16.63,8.58l5,2.63,1.36.73a3.68,3.68,0,0,1,.49.29,3,3,0,0,1-.46-.19l-1.34-.65-5-2.46C489,257,483,254,476.33,250.58l-.24-.12.12-.23.62-1.22.32-.62.16-.32.08-.16,0-.08,0,0v0h0l.35-.11h0c10.47,5.33,19.48,10,23.52,12.13l.1.06-.05.09c-.42.76-.76,1.37-1,1.84A5.22,5.22,0,0,1,500,262.35Z"/><path class="cls-2" d="M489.72,259.41s3-6.56,3.31-6.35,27.26,13.61,27.19,13.85-5.77,8.1-5.77,8.1Z"/><path class="cls-15" d="M384.92,161.81a20,20,0,0,0-5.53,12.72,31.62,31.62,0,0,0,2.7,13.22l13.92-31A17,17,0,0,0,384.92,161.81Z"/><rect class="cls-11" x="470.36" y="236.06" width="5.61" height="1.84" transform="translate(168.59 -195.78) rotate(28.26)"/><rect class="cls-11" x="469.04" y="232.49" width="2.54" height="6.15" transform="translate(167.58 -194.59) rotate(28.26)"/><path class="cls-11" d="M401.7,476.07h0a2.13,2.13,0,0,1-1.46-2.68l63.93-198.1,4.25,1.27-63.93,198.1A2.24,2.24,0,0,1,401.7,476.07Z"/><path class="cls-2" d="M401.7,476.07a2.58,2.58,0,0,0,1.08,0,2.27,2.27,0,0,0,1.15-.62,3.49,3.49,0,0,0,.77-1.64c.85-2.69,2.11-6.64,3.73-11.73,3.27-10.19,8-24.92,13.84-43.13,11.73-36.43,28-86.79,45.91-142.51l.17.33-2.09-.63-2.16-.64.32-.17L418.37,417.81c-5.91,18.18-10.68,32.89-14,43.06-1.65,5.07-2.94,9-3.82,11.7a3.59,3.59,0,0,0-.35,1.78,2.19,2.19,0,0,0,.58,1.16,2.48,2.48,0,0,0,.91.56,1.09,1.09,0,0,1-.26-.08,2.17,2.17,0,0,1-.68-.45,2.12,2.12,0,0,1-.63-1.18,3.7,3.7,0,0,1,.33-1.83c.86-2.69,2.11-6.63,3.73-11.72,3.27-10.18,8-24.91,13.83-43.12,11.74-36.42,28-86.76,45.91-142.48L464,275l.24.08,2.16.65,2.09.62.25.08-.08.25c-18,55.71-34.28,106-46.06,142.46-5.9,18.19-10.68,32.91-14,43.08-1.66,5.08-2.95,9-3.82,11.7-.12.34-.21.65-.32.95a2.11,2.11,0,0,1-.5.72,2.34,2.34,0,0,1-1.19.61,2.38,2.38,0,0,1-.82,0A1.58,1.58,0,0,1,401.7,476.07Z"/><path class="cls-11" d="M475.52,474l-1.36-198.22,4.45,0L480,474a2.19,2.19,0,0,1-2.21,2.16h0A2.2,2.2,0,0,1,475.52,474Z"/><path class="cls-2" d="M475.52,474a2.4,2.4,0,0,0,.29,1,2.34,2.34,0,0,0,.92.86,2.25,2.25,0,0,0,1.71.11,2.09,2.09,0,0,0,1.42-1.56c.09-.81,0-1.75,0-2.73q0-3-.07-6.86c-.09-10.33-.22-25.25-.38-43.69-.28-36.9-.66-87.86-1.07-144.14,0-.42,0-.84,0-1.22l.26.26-4.45,0,.26-.26c.35,55,.66,104.58.89,140.38.09,17.89.16,32.35.21,42.34,0,5,0,8.86,0,11.49,0,1.31,0,2.3,0,3s0,1,0,1,0-.35,0-1,0-1.68-.05-3c0-2.63-.07-6.5-.12-11.49-.09-10-.22-24.44-.38-42.33-.26-35.81-.63-85.36-1-140.39v-.26h.26l4.45,0h.26v.26c0,.38,0,.79,0,1.21.36,56.29.68,107.25.91,144.15.1,18.44.17,33.36.22,43.69q0,3.87,0,6.86a27.43,27.43,0,0,1,0,2.75,2.22,2.22,0,0,1-1.51,1.64,2.28,2.28,0,0,1-2.71-1,2.06,2.06,0,0,1-.24-.76A1.26,1.26,0,0,1,475.52,474Z"/><path class="cls-11" d="M548.56,474.11,485.72,276.38l4.26-1.25,62.83,197.72a2.13,2.13,0,0,1-1.48,2.68h0A2.23,2.23,0,0,1,548.56,474.11Z"/><path class="cls-2" d="M548.56,474.11a2.21,2.21,0,0,0,.6.9,2.17,2.17,0,0,0,1.19.55,2.26,2.26,0,0,0,1.72-.47,2,2,0,0,0,.71-2.07c-.26-.84-.55-1.75-.87-2.74-.63-2-1.37-4.25-2.19-6.82L535.81,420,490.1,276.37c-.13-.39-.26-.79-.37-1.16l.32.17-4.26,1.25.18-.33,44.42,140.06,13.35,42.26c1.56,5,2.77,8.85,3.6,11.48.4,1.31.71,2.3.92,3s.3,1,.3,1-.13-.34-.35-1-.55-1.67-1-3c-.85-2.62-2.09-6.48-3.69-11.45-3.19-10-7.8-24.38-13.5-42.21-11.37-35.72-27.11-85.14-44.58-140l-.08-.25.26-.08,4.25-1.25.25-.07.07.24c.12.37.25.77.37,1.17,17.79,56.08,33.9,106.86,45.57,143.63l13.75,43.55,2.15,6.84c.31,1,.59,1.91.85,2.75a2.15,2.15,0,0,1-.77,2.18,2.34,2.34,0,0,1-1.8.47,2.26,2.26,0,0,1-1.22-.59,2.13,2.13,0,0,1-.47-.68A.94.94,0,0,1,548.56,474.11Z"/><rect class="cls-2" x="461.3" y="269.87" width="29.21" height="7.56"/><rect class="cls-2" x="469.25" y="260.67" width="12.45" height="10.03"/><rect class="cls-2" x="467.22" y="257.04" width="16.34" height="3.62"/><circle class="cls-11" cx="474.2" cy="248" r="5.42"/><rect class="cls-11" x="473.8" y="230.16" width="9.03" height="17.29" transform="translate(152.66 -185.18) rotate(25.94)"/><rect class="cls-11" x="472.69" y="226.86" width="19.13" height="7.72" transform="translate(149.52 -187.71) rotate(25.94)"/><rect class="cls-9" x="432.9" y="204.91" width="83.72" height="16.93" transform="translate(141.17 -186.18) rotate(25.94)"/><polygon class="cls-9" points="453.01 214.52 380.57 187.58 395.65 156.24 462.27 195.48 453.01 214.52"/><rect class="cls-2" x="370.79" y="168.82" width="37.63" height="6.78" transform="translate(64.31 447.23) rotate(-64.06)"/><polygon class="cls-9" points="517.16 225.28 535.13 233.53 528.55 246.09 510.95 238.05 517.16 225.28"/><polygon class="cls-9" points="532.93 237.29 539.28 224.61 545.19 227.83 539.66 240.37 532.93 237.29"/><rect class="cls-9" x="538.36" y="225.29" width="7.85" height="1.84" transform="matrix(0.88, 0.47, -0.47, 0.88, 171.72, -229.78)"/><polygon class="cls-9" points="528.55 246.09 539.66 240.37 532.93 237.29 528.55 246.09"/><polygon class="cls-11" points="476.52 224.73 484.19 207.59 498.83 214.38 491.05 231.7 476.52 224.73"/><path class="cls-2" d="M462.23,195.38c.13.06-1.82,4.32-4.36,9.52s-4.69,9.36-4.82,9.3a103.42,103.42,0,0,1,4.36-9.53A103.67,103.67,0,0,1,462.23,195.38Z"/><path class="cls-2" d="M503.71,236.71c-.06.13-6.38-2.79-14.1-6.51s-13.94-6.85-13.88-7,6.38,2.79,14.1,6.51S503.77,236.58,503.71,236.71Z"/><path class="cls-2" d="M489.17,238.37a87,87,0,0,1-8.72-4A87.11,87.11,0,0,1,472,230a85.91,85.91,0,0,1,8.71,4A89.58,89.58,0,0,1,489.17,238.37Z"/><path class="cls-2" d="M476.52,232.15A51.14,51.14,0,0,1,474,238a32.64,32.64,0,0,1-3.05,5.67,52.05,52.05,0,0,1,2.58-5.89A33.16,33.16,0,0,1,476.52,232.15Z"/><path class="cls-2" d="M479.26,248c-.06,0-.05-.45-.26-1.21a5.07,5.07,0,0,0-1.85-2.66,4.85,4.85,0,0,0-7.74,3.87,4.84,4.84,0,0,0,3.16,4.52,4.9,4.9,0,0,0,4.58-.65,5,5,0,0,0,1.85-2.66c.21-.76.2-1.21.26-1.21a.94.94,0,0,1,0,.33,4,4,0,0,1-.09.93,5,5,0,0,1-1.83,2.9,5.21,5.21,0,0,1-5,.81,5.27,5.27,0,0,1,0-9.94,5.24,5.24,0,0,1,5,.81,5.05,5.05,0,0,1,1.83,2.9,4,4,0,0,1,.09.94A.9.9,0,0,1,479.26,248Z"/><rect class="cls-2" x="499.77" y="226.98" width="22.27" height="7.87" transform="translate(79.77 589.33) rotate(-64.06)"/><path class="cls-2" d="M441.77,190.07c0,.14-7.19,1.05-16.1,2s-16.13,1.64-16.15,1.5,7.19-1,16.1-2S441.75,189.93,441.77,190.07Z"/><path class="cls-2" d="M439.85,186.45a16.13,16.13,0,0,1-2.94.54c-1.84.25-4.38.55-7.19.79s-5.36.36-7.21.42a16.36,16.36,0,0,1-3,0,17.82,17.82,0,0,1,3-.33l7.19-.57,7.18-.64A18.76,18.76,0,0,1,439.85,186.45Z"/><path class="cls-6" d="M457.44,196.59c-.08.12-13-7.33-28.85-16.65S399.94,163,400,162.85s13,7.32,28.84,16.64S457.51,196.46,457.44,196.59Z"/><path class="cls-6" d="M475.07,206.06a36.07,36.07,0,0,1-5.79-2.35,37.79,37.79,0,0,1-5.57-2.82,37.67,37.67,0,0,1,5.79,2.35A39.1,39.1,0,0,1,475.07,206.06Z"/><rect class="cls-2" x="432.31" y="355.98" width="87.28" height="5.76"/><path class="cls-13" d="M528,282.21,509.48,280s-2.06-1.86-1.92-2.89,1.16-1.3,2.4-.48,4.53.27,4.53.27.35-.48-1-.61-9.13-1.1-9.61-1.86-1.17-1.81-.28-2.52c0,0-2.88-.29-3.3-1s-.62-2.37.55-2.37,4.54-.2,4.54-.2-1.65-.83-1.51-1.51.2-1.52,1-1.72,9.75-.74,9.75-.74a14.83,14.83,0,0,1-3-2.55,3.29,3.29,0,0,1-.12-1.73,41.33,41.33,0,0,0,7.35,3.49s5.08,1.42,6.73,2.51,6.39,6.3,6.39,6.3"/><path class="cls-14" d="M531.94,272.4a3,3,0,0,1-.32-.3l-.92-.93c-.79-.81-2-2-3.5-3.48a9.14,9.14,0,0,0-2.8-2,35.65,35.65,0,0,0-3.89-1.39l-2.2-.66a21.64,21.64,0,0,1-2.28-.91,52.22,52.22,0,0,1-4.67-2.42l.33-.16a4,4,0,0,0,0,1.29c.06.35.45.69.77,1a20.29,20.29,0,0,0,2.31,1.75l.59.39-.7.05-6.82.46-1.78.15c-.59.09-1.27,0-1.54.39a1.68,1.68,0,0,0-.31.73l-.08.44a.33.33,0,0,0,0,.15.93.93,0,0,0,0,.13,3.57,3.57,0,0,0,1.33,1.05l.84.44-.94.05-2.6.12-1.35.06-.65,0a.5.5,0,0,0-.4.19,1.6,1.6,0,0,0-.1,1.18,2.85,2.85,0,0,0,.22.6,1,1,0,0,0,.45.3,10.62,10.62,0,0,0,2.66.6l.65.08-.52.38c-.43.31-.4.84-.14,1.36a6.49,6.49,0,0,0,.44.76,1.35,1.35,0,0,0,.65.32,29.21,29.21,0,0,0,3.46.75c1.15.19,2.29.35,3.42.5l1.67.21a5.61,5.61,0,0,1,.86.13,1.39,1.39,0,0,1,.45.21.5.5,0,0,1,.15.68l-.06.09h-.1a13.53,13.53,0,0,1-3,.14,3.8,3.8,0,0,1-1.49-.37,3.15,3.15,0,0,0-1.22-.53.83.83,0,0,0-.92.44A1.14,1.14,0,0,0,508,278a9.08,9.08,0,0,0,1.61,1.93l-.11-.05L523,281.5l3.69.49,1,.15a1.12,1.12,0,0,1,.33.07,2.19,2.19,0,0,1-.34,0l-1-.09-3.7-.38-13.49-1.5h-.07l-.05,0a9.2,9.2,0,0,1-1.71-2,2.12,2.12,0,0,1-.27-.69,1.43,1.43,0,0,1,.1-.79,1.27,1.27,0,0,1,1.38-.7,3.46,3.46,0,0,1,1.37.57,3.71,3.71,0,0,0,1.32.31,13.13,13.13,0,0,0,2.92-.15l-.15.1s0,0,0,0a.87.87,0,0,0-.29-.12,4.52,4.52,0,0,0-.79-.12l-1.68-.2c-1.13-.15-2.27-.31-3.44-.5a28.91,28.91,0,0,1-3.53-.75,3.25,3.25,0,0,1-.46-.17,1.47,1.47,0,0,1-.24-.13,1.13,1.13,0,0,1-.22-.23,6.54,6.54,0,0,1-.48-.82,2.35,2.35,0,0,1-.24-1,1.36,1.36,0,0,1,.53-1l.13.46a11.11,11.11,0,0,1-2.82-.63A1.48,1.48,0,0,1,500,271a2.86,2.86,0,0,1-.27-.74,2,2,0,0,1,.19-1.6,1,1,0,0,1,.77-.4l.69,0,1.33-.06,2.59-.12-.1.49a3.9,3.9,0,0,1-1.55-1.27.94.94,0,0,1-.1-.31,1.33,1.33,0,0,1,0-.31l.09-.46a2.08,2.08,0,0,1,.42-.94,1.47,1.47,0,0,1,1-.47l.91-.09,1.79-.15,6.83-.44-.12.44a20.11,20.11,0,0,1-2.36-1.8,5.33,5.33,0,0,1-.52-.54,2.49,2.49,0,0,1-.23-.31,1.31,1.31,0,0,1-.15-.4,4.2,4.2,0,0,1,0-1.46l.05-.33.29.17a35.47,35.47,0,0,0,9,4,35.26,35.26,0,0,1,3.91,1.45,9.53,9.53,0,0,1,2.85,2.11c1.53,1.5,2.66,2.73,3.42,3.57l.87,1A1.66,1.66,0,0,1,531.94,272.4Z"/><path class="cls-14" d="M515.54,273a4.77,4.77,0,0,1-1.75.1c-1.09,0-2.57-.19-4.2-.41l-4.16-.57a7.16,7.16,0,0,1-1.72-.3c0-.17,2.69-.11,6,.36l4.16.55A7.65,7.65,0,0,1,515.54,273Z"/><path class="cls-14" d="M514.94,268.78c0,.13-2.25,0-5,0a29.91,29.91,0,0,1-3.58-.16,3.81,3.81,0,0,1-1.46-.33c0-.12,2.25,0,5,0a32.1,32.1,0,0,1,3.57.16A3.81,3.81,0,0,1,514.94,268.78Z"/><path class="cls-13" d="M545.33,239.81c-.24-.06-5.17.16-7.67-.65s-3-.29-3.38.46.41,3.24,3.93,4c2.94.62,5.08,1.08,5.08,1.27,0,0-.79,3.64.88,6.3"/><path class="cls-14" d="M544.17,251.17s-.11-.11-.28-.37a5.8,5.8,0,0,1-.55-1.22,10,10,0,0,1-.26-4.75v0s.06.14,0,.13h0l-.07,0-.2-.07-.43-.12-.91-.21-2-.42c-.68-.15-1.37-.26-2.11-.47a5.83,5.83,0,0,1-2.06-1.08,3.42,3.42,0,0,1-1.4-2.77,1.67,1.67,0,0,1,.35-.76,1.41,1.41,0,0,1,.7-.46,3.13,3.13,0,0,1,1.46,0,12.44,12.44,0,0,1,1.27.35,9.47,9.47,0,0,0,1.14.28,20.34,20.34,0,0,0,2.14.28c2.64.21,4.3.18,4.3.3a7.4,7.4,0,0,1-1.16.09c-.74,0-1.82,0-3.16,0a20.54,20.54,0,0,1-2.19-.22,11.64,11.64,0,0,1-1.21-.28,12.07,12.07,0,0,0-1.22-.3,2.69,2.69,0,0,0-1.23,0,.89.89,0,0,0-.44.3,1.22,1.22,0,0,0-.24.52,3,3,0,0,0,1.23,2.3,5.21,5.21,0,0,0,1.88,1c.66.2,1.38.33,2,.48l2,.45.92.23.45.14.22.08.13.06.07,0a.36.36,0,0,1,.12.21v0a10.68,10.68,0,0,0,.08,4.59C543.86,250.6,544.23,251.14,544.17,251.17Z"/><path class="cls-6" d="M609.23,208.13a3.3,3.3,0,1,1-3.3-3.3A3.3,3.3,0,0,1,609.23,208.13Z"/><path class="cls-2" d="M609.23,208.13s-.05-.29-.2-.78a3.36,3.36,0,0,0-1.21-1.7,3.16,3.16,0,0,0-2.93-.4,3.07,3.07,0,0,0,0,5.76,3.14,3.14,0,0,0,2.93-.4,3.36,3.36,0,0,0,1.21-1.7c.15-.49.16-.78.2-.78a1.51,1.51,0,0,1,0,.83A3.34,3.34,0,0,1,608,210.9a3.48,3.48,0,0,1-3.32.56,3.53,3.53,0,0,1,0-6.65,3.45,3.45,0,0,1,3.32.55,3.34,3.34,0,0,1,1.19,1.94A1.49,1.49,0,0,1,609.23,208.13Z"/><circle class="cls-6" cx="637.83" cy="185.38" r="27.3"/><path class="cls-2" d="M665.13,185.38a2.19,2.19,0,0,1,0-.44c0-.32-.06-.75-.09-1.3,0-.29,0-.6-.06-.95s-.12-.73-.18-1.14a19.06,19.06,0,0,0-.58-2.81,25.85,25.85,0,0,0-3-7.23,27,27,0,0,0-6.91-7.68,26.75,26.75,0,0,0-11.4-5.05,27.35,27.35,0,0,0-17.74,2.74c-.58.31-1.12.67-1.69,1a12.82,12.82,0,0,0-1.63,1.13,30.07,30.07,0,0,0-3.07,2.61,30.83,30.83,0,0,0-2.65,3.13,26.24,26.24,0,0,0-3.86,7.45,29,29,0,0,0-1.4,8.53,28.71,28.71,0,0,0,1.4,8.54,26.24,26.24,0,0,0,3.86,7.45,30.75,30.75,0,0,0,2.65,3.14,31.28,31.28,0,0,0,3.07,2.6,12.82,12.82,0,0,0,1.63,1.13c.57.34,1.11.7,1.68,1a29.57,29.57,0,0,0,3.53,1.55A27.24,27.24,0,0,0,642.83,212a27,27,0,0,0,11.41-5,27.32,27.32,0,0,0,6.9-7.69,25.8,25.8,0,0,0,3-7.22,19.16,19.16,0,0,0,.58-2.82c.06-.41.14-.79.18-1.13s0-.67.06-1q0-.83.09-1.29a2.19,2.19,0,0,1,0-.44s0,.15,0,.44,0,.75,0,1.3c0,.29,0,.61,0,1s-.09.73-.15,1.15a20.31,20.31,0,0,1-.53,2.84,26,26,0,0,1-3,7.32,27.38,27.38,0,0,1-32.94,11.85,29.14,29.14,0,0,1-3.59-1.57c-.59-.32-1.15-.68-1.72-1a13.31,13.31,0,0,1-1.67-1.14,30,30,0,0,1-3.12-2.65,30.82,30.82,0,0,1-2.71-3.19,26.85,26.85,0,0,1-3.94-7.59,27.15,27.15,0,0,1,0-17.39,26.85,26.85,0,0,1,3.94-7.59,31.9,31.9,0,0,1,2.71-3.19,31.23,31.23,0,0,1,3.12-2.65,14.48,14.48,0,0,1,1.67-1.14c.58-.34,1.13-.71,1.72-1a28,28,0,0,1,18-2.74,27.42,27.42,0,0,1,18.48,13,26,26,0,0,1,3,7.33,20.31,20.31,0,0,1,.53,2.84c.06.41.12.79.15,1.14s0,.68,0,1c0,.56,0,1,0,1.3S665.13,185.38,665.13,185.38Z"/><path class="cls-2" d="M635.72,191.66a9,9,0,1,1,9-9A9,9,0,0,1,635.72,191.66Zm0-17a7.94,7.94,0,1,0,7.94,7.94A8,8,0,0,0,635.72,174.7Z"/><rect class="cls-2" x="642.46" y="188.86" width="1.09" height="8.8" transform="translate(9.14 414.67) rotate(-35.98)"/><path class="cls-2" d="M632.18,187c0,.06-.54-.09-1.19-.63a5,5,0,0,1-1.24-6c.38-.76.79-1.1.84-1.06s-.21.47-.47,1.21a5.38,5.38,0,0,0,1.15,5.6C631.8,186.69,632.23,187,632.18,187Z"/><path class="cls-7" d="M650.06,183.63l1.57,1.28a.66.66,0,0,0,.62.12l2-.57a.68.68,0,0,1,.82.9l-.72,1.89a.7.7,0,0,0,.07.63l1.15,1.67a.69.69,0,0,1-.6,1.07l-2-.11a.71.71,0,0,0-.58.26l-1.23,1.61a.68.68,0,0,1-1.2-.24l-.53-2a.66.66,0,0,0-.43-.46L647,189a.68.68,0,0,1-.14-1.21l1.7-1.11a.68.68,0,0,0,.31-.55l.06-2A.68.68,0,0,1,650.06,183.63Z"/><path class="cls-7" d="M648.88,176.14l.78.63a.33.33,0,0,0,.3.06l1-.28a.33.33,0,0,1,.4.44l-.35.93a.34.34,0,0,0,0,.31l.57.82a.34.34,0,0,1-.3.53l-1-.06a.36.36,0,0,0-.28.13l-.61.79a.34.34,0,0,1-.59-.11l-.26-1a.37.37,0,0,0-.21-.23l-.94-.33a.34.34,0,0,1-.07-.6l.84-.54a.33.33,0,0,0,.15-.27l0-1A.33.33,0,0,1,648.88,176.14Z"/></g></g></svg>