<?xml version="1.0" encoding="utf-8"?>
<!-- Generator: Adobe Illustrator 23.0.5, SVG Export Plug-In . SVG Version: 6.00 Build 0)  -->
<svg version="1.1" id="Layer_1" xmlns="http://www.w3.org/2000/svg" xmlns:xlink="http://www.w3.org/1999/xlink" x="0px" y="0px"
	 viewBox="0 0 1920 220" style="enable-background:new 0 0 1920 220;" xml:space="preserve">
<style type="text/css">
	.st0{fill:#FFFFFF;}
	.st1{fill:#553415;}
	.st2{fill:#533E93;}
	.st3{fill:#F8D0AD;}
	.st4{fill:#8B75D1;}
	.st5{fill:#44338E;}
	.st6{fill:#421515;}
	.st7{opacity:0.1;fill:#282425;enable-background:new    ;}
	.st8{fill:#EAAE94;}
	.st9{fill:#EDB68A;}
	.st10{fill:#DE9F74;}
	.st11{fill:#D6CBF7;}
	.st12{fill:#524199;}
	.st13{fill:#56469B;}
	.st14{fill:#F6F4DC;}
	.st15{fill:#E8E8E8;}
</style>
<path class="st0" d="M1256.2,213.3c2.4-2.4,5.4-2.5,6.2-2.5c1.3,0.1,2.6,0.3,3.8,0.7c0,0,0.8-8.4,6.2-8.4c5.4-0.1,8.3,2.9,8.8,5.6
	c1-1.6,2.6-2.8,4.4-3.3h0.4l1-0.1c1.7-0.1,3.3,0.5,4.7,1.5c0.1-0.5,1.4-5.7,6.3-7.7c3.8-1.5,8.1-0.6,11,2.2c2.9-4.3,7.4-7.2,12.5-8
	l0.9-0.1h1.4c7.4-0.1,12.4,4.8,13.2,5.5c1.4-3.1,4.4-5.1,7.8-5.1h0.4l1,0.1c2.8,0.5,5.2,2.4,6.4,5.1c1.4-1.8,3.2-3.4,5.2-4.7
	l1.4-0.7c2.2-1.1,4.6-1.6,7-1.6h1.3c1,0.1,1.9,0.3,2.9,0.6l1.4,0.5c3.9,1.6,7.1,4.7,8.9,8.6c3.1-2.3,7.3-2.4,10.5-0.3
	c3.7,2.6,3.9,7.2,3.9,7.7c1.5-2.6,4.3-4.1,7.3-3.8c0.3,0,0.7,0.1,1,0.2c0.5,0.1,0.9,0.2,1.4,0.5h0.1c0.7-1.4,1.6-2.6,2.8-3.6
	c0.3-0.3,0.6-0.5,0.9-0.7l0.4-0.3c0.9-0.4,1.9-0.7,2.9-0.9l1.3-0.1c1.8,0,3.5,0.5,5.1,1.4l0.7,0.5l0.7,0.6c1.8,1.6,3,3.7,3.4,6.1
	c0.9-1.4,2.2-2.5,3.8-3.1l1.1-0.3h0.3c1.9-0.2,3.9,0.3,5.4,1.4c0.1-0.5,1.4-5.7,6.3-7.7c0.4-0.2,0.8-0.3,1.2-0.4l1.4-0.3
	c3.1-0.4,6.2,0.7,8.4,2.8c2-3,4.8-5.3,8.1-6.8l1.4-0.5c1-0.3,2-0.6,3-0.7c1.7-0.3,3.3-0.3,5,0l1.4,0.3c2.2,0.5,4.4,1.5,6.3,2.8
	l1.4,1l1.4,1.3c0.9-2.1,2.6-3.7,4.7-4.5l1.4-0.5c0.7-0.1,1.4-0.2,2-0.1c1.5,0.1,3,0.6,4.2,1.4l1.3,1.1c0.8,0.8,1.4,1.7,1.8,2.7
	c1.2-1.6,2.7-3,4.4-4.1l1.4-0.9c0.9-0.5,1.9-0.9,3-1.3l1.4-0.4c1.3-0.3,2.7-0.4,4.1-0.3l1.1,0.1l1.4,0.3c2.5,0.6,4.8,1.7,6.8,3.4
	l1.4,1.4l0.7,0.8c0.5,0.6,1,1.2,1.4,1.8s0.7,1.3,1.1,1.9c3.1-2.3,7.3-2.4,10.5-0.3c3.7,2.6,3.9,7.2,3.9,7.7c0.4-0.7,0.9-1.4,1.6-1.9
	c0.4-0.4,0.9-0.7,1.4-1c1.3-0.8,2.8-1.1,4.3-1c2.5,0.3,4.6,1.8,5.9,3.9c0.2,0.3,0.5-1.2,0.9-1.8c1.9-3.5,5.5-5.7,9.5-5.8
	c0.4,0,0.9,0,1.3,0.1l0.9,0.1c1.2,0.4,2.2,1,3.2,1.8c0.5,0.4,1,0.9,1.4,1.4c1.1,1.4,1.9,2.9,2.4,4.6c0.1-1.4,0.7-2.7,1.8-3.7
	c0.7-0.6,1.7-0.9,2.6-0.9h0.5c1.1,0.1,2.2,0.5,3.1,1.2c0.1-0.1,0.2-0.6,0.5-1.2c0.2-0.5,0.4-0.9,0.7-1.4c1.5-3.1,4.8-8.2,10.7-10.9
	l1.4-0.5c0.6-0.3,1.2-0.5,1.8-0.6c4.5-1.1,9.1-0.6,13.3,1.4l1.4,0.7c0.9,0.5,1.8,1.1,2.7,1.8l1.4,1.2c1.1,1,2.1,2,2.9,3.2l0.4,0.5
	l1-0.8c0.8-0.6,1.7-0.9,2.7-1.1h1.4c1.5,0.2,2.8,1,3.7,2.2c0.4,0.5,0.7,1,0.9,1.5c1.5-4.4,10.3-8.7,16.7-5s3.4,11,3.4,11
	c6.5-2.3,13.4-1,17.8,3.3c3.2,3.2,4,7.2,4.2,8.9h-412.5C1253.7,219.4,1253.5,215.9,1256.2,213.3L1256.2,213.3z M474.4,70.4
	c0.9,0,1.9,0.1,2.8,0.4c-0.1-0.4-0.1-0.8-0.2-1.2c0.1-2.6,2.2-4.6,4.8-4.5c1,0,1.9,0.4,2.7,1c0.9-3.7,4.3-6.3,8.1-6.3
	c3.2,0,6.2,1.8,7.6,4.7c0.6-4.8,5-8.2,9.8-7.7c3.9,0.5,7.1,3.5,7.6,7.4c0.4-0.2,0.8-0.2,1.3-0.2c2.3,0,4.2,1.9,4.2,4.2
	c0,0.5-0.1,1-0.2,1.4h0.2c5.4,0.5,9.4,5.3,8.9,10.7c-0.4,4.7-4.2,8.5-8.9,8.9h-48.7c-5.2-0.5-9-5.1-8.5-10.2
	C466.3,74.4,469.9,70.8,474.4,70.4L474.4,70.4L474.4,70.4z M389.1,109.7c0.7,0,1.4,0.1,2,0.3c-0.1-0.3-0.1-0.6-0.1-0.9
	c0-1.8,1.5-3.3,3.3-3.3c0.8,0,1.5,0.3,2.1,0.8c0.7-2.7,3.1-4.6,5.9-4.6c2.3,0,4.5,1.3,5.4,3.4c0.5-3.1,3.2-5.4,6.3-5.4
	s5.8,2.2,6.3,5.3l0.9-0.2c1.7,0,3,1.3,3,3c0,0.4-0.1,0.8-0.2,1.1h0.2c3.9,0.4,6.7,3.9,6.2,7.7c-0.4,3.3-2.9,5.9-6.2,6.2h-35.1
	c-3.8,0-6.8-3-6.8-6.8C382.3,112.5,385.3,109.7,389.1,109.7L389.1,109.7L389.1,109.7z M548.5,119.7c0.7,0,1.4,0.1,2.1,0.3
	c-0.1-0.3-0.1-0.6-0.2-1c0-1.9,1.6-3.4,3.5-3.4c0.8,0,1.6,0.3,2.2,0.8c0.7-2.8,3.3-4.8,6.2-4.8c2.4,0,4.6,1.3,5.7,3.5
	c0.5-3.3,3.4-5.7,6.7-5.7c3.2,0,6,2.3,6.5,5.5l1-0.2c1.7,0,3.1,1.4,3.1,3.1c0,0.4-0.1,0.8-0.2,1.1h0.2c4.1,0,7.4,3.3,7.4,7.4
	c0,4.1-3.3,7.4-7.4,7.4h-36.9c-3.9,0.4-7.4-2.5-7.8-6.4s2.5-7.4,6.4-7.8C547.5,119.6,548,119.6,548.5,119.7L548.5,119.7z"/>
<g transform="matrix(.685 0 0 .685 1300 0)">
	<path class="st1" d="M199.9,89.6h1l18,57.6h-1L199.9,89.6z M300.2,90.4h1l-17.8,57.7h-1C282.4,148.1,300.2,90.4,300.2,90.4z
		 M250.9,89.8h0.8v57.7h-0.8V89.8z"/>
	<path class="st2" d="M204.7,103.8h92.6l23.6-26.9H182.7L204.7,103.8z"/>
	<path class="st2" d="M271.1,231.4l-1.4,20.9h-35.1c-0.9-10.2-1.5-18.2,0-24.2C241.9,199.7,272.4,213.2,271.1,231.4z"/>
	<path class="st3" d="M219.7,230.4c-8.1,1.5-16.5-0.1-23.5-4.4c-5.6-3.3-8.8-7.1-12.8-12.1s-7-8.7-9.3-15.5
		c-1.4-3.9-2.2-8.1-2.3-12.3c-0.5-2.4-2-2.9-2.2-0.4s-0.1,4.4-0.5,4.5s-4.1-1.3-4.4-1.3l-3.2,1.1c-0.4,0.2-1.7-1.4-3.8-5
		c-0.6-0.8-2.3-0.3-1,2.2c0.7,1.9,1.4,3.7,2.3,5.5c1.8,3.8,3.4,5.6,7.5,12.2c1.7,2.5,1.5,2.3,2.6,4.1c3.2,5.2,6.8,10.2,10.9,14.8
		c3.5,4.1,7.6,7.7,12.2,10.5c9.4,5.7,26.7,6.5,33.3,3.6L219.7,230.4z"/>
	<path class="st0" d="M192.9,42.8c-1.2,0-2.4,0.2-3.5,0.5c0.1-0.5,0.2-1,0.2-1.5c-0.1-3.2-2.7-5.7-5.9-5.7c-1.3,0-2.5,0.5-3.5,1.3
		c-1.2-4.7-5.4-7.9-10.2-7.9c-4,0-7.7,2.3-9.5,5.9c-0.7-6-6.2-10.3-12.2-9.6c-4.9,0.6-8.8,4.4-9.6,9.3c-0.5-0.2-1.1-0.3-1.6-0.3
		c-2.9,0-5.2,2.3-5.2,5.2c0,0.6,0.1,1.2,0.3,1.8h-0.3c-6.8,0.6-11.8,6.6-11.1,13.4c0.5,5.9,5.2,10.6,11.1,11.1h61
		c6.5-0.6,11.3-6.3,10.7-12.8C203,47.8,198.6,43.3,192.9,42.8z"/>
	<path class="st2" d="M386.1,0c-10.2,13-55.2,65.9-66.3,78.2h-9.9l57.2-78.1L386.1,0z"/>
	<path class="st4" d="M291.8,78.2l34.8-78.1h43.7c-11.7,14.2-23.2,28.6-34.4,43.2c-9,11.8-17.7,23.5-26,35L291.8,78.2z"/>
	<path class="st2" d="M292.6,78l-22.7,0.2L284.4,0h45.5L292.6,78z M233.2,78.2h-24.8c-5.8-9.1-11.1-18.5-15.9-28.1
		C184.4,34,177.8,17.3,172.8,0h46.3c4.6,17.9,8.3,36,11,54.3C231.4,62.6,232.4,70.5,233.2,78.2z M189.6,78.2L134,0.1h-17.6
		c10,13.8,57,67.9,67.7,78.1H189.6z"/>
	<path class="st4" d="M172.8,0c7.1,18.9,32.2,72,35.6,78.2h-18.8C179.2,67,139.8,11.8,133.4,0H172.8z M271.1,78.2h-38.4
		c-2.4-11.6-11.4-63.6-13.6-78.1h65.3C282.7,12.8,273.6,65.6,271.1,78.2L271.1,78.2z"/>
	<path class="st3" d="M217.7,154.3l2,38.6l-10.1,1l23.8,32.7l7.4,0.4l24.1-9.6h0.3c2.2-0.8,9.8-7.4,10.8-11c2.8-9,5.9-17.7,8.4-26.9
		c0.3-1,4.7-17.4,4.7-17.4L217.7,154.3z"/>
	<path class="st2" d="M304.7,320H197.8v-48c0.5-2.7,1.7-7.3,5.5-10.6s9.4-4.1,11.9-4.1h71.5c2.7,0,8.1,0.5,12.3,4.3
		c3,2.9,5,6.7,5.5,10.9l0.2,15.1V320z"/>
	<path class="st5" d="M197.1,252.1h107.8v6H197.1V252.1z"/>
	<g>
		<path class="st6" d="M296.9,144.3c0,0,4.5,24.2-12,39.5l5.2-21.1L296.9,144.3z"/>
		<path class="st6" d="M276.5,167.7l-7.2,48.2l3.1,2.3l14.4-36.7l9.3-35.1l-71.7-8.7C221.8,148.4,236.2,155.5,276.5,167.7
			L276.5,167.7z"/>
	</g>
	<path class="st7" d="M269.6,205.7l0.7,6.2l7.8-5.4L269.6,205.7z"/>
	<path class="st3" d="M271.1,181.8l-1.5,23.9c13.3,5.3,17-8,17.4-13.5C288.1,176.3,271.1,181.8,271.1,181.8z"/>
	<path class="st8" d="M226,197.4l0.1,0.1L226,197.4L226,197.4L226,197.4z M258.2,167.5h-0.5v-0.3L258.2,167.5z"/>
	<path class="st9" d="M238.8,165.1c5.8,3.2,12.6,4,19,2.5l1.3,4.6c-6.7,1.9-13.9,1.1-20.1-2.2l1.3,4.5c-7.3,2.1-15.2,1-21.7-3.1
		l-0.2-3.5L238.8,165.1z M256.9,162.5l2.8,0.6c2.9,0.7,5.8,1,8.8,0.9l0.3,4.9c-3,0.1-5.9-0.2-8.8-0.9l-1.7-0.5L256.9,162.5z"/>
	<g>
		<path class="st6" d="M213.8,116.1l3.1,10.5c3.3-6.2,8.9-10.8,15.6-12.9l3.7,12.5l60.7,18.1c-0.3,1.4-0.8,2.8-1.3,4.1l-15.7,15.5
			l-9,34.7c-2.7,0.1-5.5-10.1-6.2-22.8c-0.2-3.5-0.2-7,0-10.5c-1.7-0.1-3.4-0.4-5-0.8l-2.3-0.7l1.4,4.9c-6.7,2-14,1.2-20.1-2.2
			l1.3,4.6c-15,4.4-31.1-5.6-36-22.2S198.8,120.4,213.8,116.1L213.8,116.1z"/>
		<circle class="st6" cx="231.7" cy="191.9" r="2.5"/>
	</g>
	<path class="st10" d="M239.9,214.3c3.1-0.3,5.4-3.1,5.2-6.2c0-0.4-0.4-0.8-0.8-0.8h-0.1c-0.4,0-0.8,0.3-0.8,0.8c0,0.1,0,0.2,0,0.2
		c-0.1,2.3-1.9,4.1-4.2,4c-1.9,0-3.5-1.4-3.9-3.2c-0.1-0.4-0.5-0.8-0.9-0.7s-0.8,0.5-0.7,0.9C234.1,212.3,236.8,214.5,239.9,214.3z"
		/>
	<path class="st6" d="M252.7,196.4h-0.4l-7.7-3.7c-0.4-0.2-0.6-0.6-0.6-1c0.1-0.5,0.4-0.8,0.8-1l7-1.4c0.6-0.1,1.1,0.2,1.2,0.8
		c0.1,0.6-0.2,1.1-0.8,1.2l-4.1,0.9l5,2.4c0.5,0.2,0.7,0.8,0.5,1.3C253.4,196.2,253.1,196.4,252.7,196.4z"/>
	<path class="st11" d="M315,233.9c-1.9-1.7-4.3-2.6-6.8-2.6c2.5,0,5-1,6.8-2.7c1.7-1.8,2.7-4.3,2.7-6.8c-0.2,5,3.7,9.3,8.7,9.5
		c0.3,0,0.5,0,0.8,0c-4.9-0.3-9.2,3.4-9.5,8.3c0,0.4,0,0.8,0,1.2C317.8,238.2,316.8,235.7,315,233.9z M163.1,147.7
		c-2.4-2.1-5.4-3.2-8.5-3.3c3.2,0,6.2-1.2,8.5-3.4c2.1-2.3,3.2-5.3,3.3-8.4c0,3.1,1.2,6.2,3.4,8.4c2.3,2.2,5.3,3.4,8.5,3.4
		c-2,0-5.9,0.6-8.5,3.3c-2.1,2.4-3.3,5.4-3.4,8.5C166.4,153.1,165.2,150,163.1,147.7z M140.2,161.1c-1.8-1.6-4-2.5-6.4-2.5
		c2.4,0,4.6-0.9,6.4-2.4c1.6-1.7,2.4-4,2.4-6.3c0,2.3,0.9,4.6,2.4,6.3c1.8,1.6,4,2.4,6.4,2.4c-2.4,0.1-4.6,0.9-6.4,2.5
		c-1.6,1.7-2.4,4-2.4,6.3C142.6,165.1,141.7,162.8,140.2,161.1z"/>
	<path class="st0" d="M402.5,78.2c-0.9,0-1.7,0.1-2.5,0.4c0.1-0.4,0.1-0.7,0.1-1.1c0-2.3-1.8-4.1-4.1-4.1l0,0c-1,0-1.9,0.4-2.6,1
		c-0.8-3.4-3.9-5.8-7.4-5.7c-2.9,0-5.6,1.7-6.8,4.3c-0.6-3.9-3.9-6.8-7.9-6.8c-3.9-0.1-7.3,2.8-7.9,6.6l-1.1-0.2
		c-2.1,0-3.7,1.6-3.8,3.7c0,0.5,0.1,0.9,0.2,1.4h-0.2c-4.8,0.5-8.3,4.9-7.8,9.7c0.4,4.1,3.7,7.4,7.8,7.8h44c4.7,0,8.5-3.8,8.5-8.5
		S407.2,78.2,402.5,78.2L402.5,78.2z M100.1,28.1c-0.9,0-1.8,0.1-2.6,0.4c0.1-0.4,0.2-0.8,0.2-1.2c-0.1-2.4-2-4.3-4.4-4.3
		c-1,0-1.9,0.4-2.7,1c-0.9-3.6-4.1-6-7.8-6c-3,0-5.8,1.7-7.1,4.4c-0.6-4.1-4.2-7.2-8.4-7.2c-4,0-7.5,2.9-8.2,6.9l-1.2-0.2
		c-2.2,0-3.9,1.7-3.9,3.9l0,0c0,0.5,0.1,1,0.3,1.4H54c-5.1,0-9.3,4.2-9.3,9.3s4.2,9.3,9.3,9.3h46.2c4.9,0.5,9.3-3.1,9.7-8
		c0.5-4.9-3.1-9.3-8-9.7C101.4,28,100.7,28,100.1,28.1z"/>
	<ellipse class="st12" cx="58.2" cy="184.9" rx="4.7" ry="7.3"/>
	<g>
		<path class="st2" d="M159.1,193.4l47.2,2l0.4-10.4l-47.2-2L159.1,193.4z"/>
		<path class="st2" d="M125.8,192.5l33.5,1.4l0.4-11.3l-33.5-1.4L125.8,192.5z M91.4,192.7l33.5,1.4l0.5-13.6L91.8,179l-0.9-0.4
			L91.4,192.7z"/>
		<path class="st2" d="M57,192.5l33.6,1.4l0.6-16l-33.5-1.4C57.7,176.5,57,192.5,57,192.5z"/>
	</g>
	<path class="st4" d="M206.6,195.7L206.6,195.7c0.4,0,0.8-0.4,0.8-0.8l0,0v-10.3c0-0.4-0.4-0.8-0.8-0.8l0,0c-0.4,0-0.8,0.4-0.8,0.8
		v10.3C205.9,195.3,206.2,195.7,206.6,195.7z M159.9,195L159.9,195c0.4,0,0.8-0.4,0.8-0.8l0,0v-11.9c0-0.4-0.4-0.8-0.8-0.8l0,0
		c-0.4,0-0.8,0.4-0.8,0.8v11.9C159.1,194.6,159.5,195,159.9,195L159.9,195z M125.4,195L125.4,195c0.4,0,0.8-0.4,0.8-0.8l0,0v-13.9
		c0-0.4-0.4-0.8-0.8-0.8l0,0c-0.4,0-0.8,0.4-0.8,0.8v13.9C124.6,194.6,125,195,125.4,195z M91.1,194.8L91.1,194.8
		c-0.5,0-0.8-0.3-0.9-0.8v-16.3c0.1-0.4,0.5-0.8,0.9-0.8l0,0c0.4,0,0.8,0.4,0.8,0.8V194C91.9,194.4,91.5,194.8,91.1,194.8z
		 M56.8,193.9L56.8,193.9c0.5,0,0.8-0.3,0.9-0.8v-16.7c-0.1-0.4-0.5-0.8-0.9-0.8l0,0c-0.4,0-0.8,0.4-0.8,0.8v16.7
		C56,193.5,56.4,193.9,56.8,193.9L56.8,193.9z"/>
	<path class="st11" d="M36.9,225L36.9,225l-3.6-3.1c-0.7-0.5-0.9-0.6-0.5-1.6l1.5-4.3h-0.1l-4.6-0.9c-0.8-0.2-0.9-0.5-1-1l-0.9-4.8
		h-0.1l-4.5,1.7c-0.5,0.2-1.1,0-1.4-0.4l-3.2-3.7h-0.2l-3.1,3.7c-0.4,0.5-1.2,0.7-1.8,0.5l-4.2-1.5H9.1l-1,4.6
		c-0.1,0.6-0.6,1.1-1.2,1.2l-4.5,0.8H2.3l1.6,4.3c0.2,0.6,0.1,1.3-0.4,1.7L0,225v0.2l3.7,3.1c0.7,0.5,0.7,1,0.5,1.8l-1.6,4.2h0.2
		l4.5,0.9c0.6,0.1,1.2,0.6,1.3,1.2l0.8,4.5h0.1l4.4-1.6c0.6-0.3,1.3-0.1,1.7,0.4l2.9,3.5h0.2l3.1-3.6c0.4-0.5,1.1-0.8,1.7-0.5
		l4.3,1.6h0.1l0.8-4.6c0.1-0.6,0.6-1.1,1.2-1.3l4.5-0.8h0.1l-1.5-4.3c-0.3-0.6-0.1-1.4,0.4-1.8L36.9,225z"/>
	<path class="st0" d="M16.5,224.3c0.6-0.5,0.9-1.3,0.8-2.1v-0.6c0.1-0.8-0.2-1.6-0.8-2.2c-0.6-0.5-1.3-0.8-2.1-0.7
		c-0.7,0-1.5,0.2-2,0.7c-0.5,0.6-0.7,1.4-0.7,2.2v0.6c0,0.8,0.3,1.5,0.8,2.1s1.2,0.8,2,0.8C15.2,225.1,16,224.8,16.5,224.3z
		 M15.7,222.1c0,0.4-0.1,0.7-0.3,1c-0.2,0.2-0.6,0.4-0.9,0.3c-0.3,0.1-0.6-0.1-0.8-0.3s-0.4-0.6-0.4-0.9v-0.7c0-0.4,0.1-0.7,0.4-1
		c0.2-0.2,0.5-0.3,0.8-0.3c0.2,0,0.7,0,0.9,0.3s0.3,0.6,0.3,1V222.1z M24.2,225.9c-0.6-0.6-1.4-0.9-2.2-0.8c-0.8,0-1.5,0.3-2,0.8
		c-0.4,0.6-0.6,1.4-0.6,2.1v0.6c-0.1,0.8,0.2,1.5,0.7,2.1c0.5,0.5,1.2,0.8,2,0.8s1.5-0.3,2.1-0.8c0.5-0.6,0.8-1.3,0.7-2.1V228
		C25,227.2,24.7,226.5,24.2,225.9z M23.3,228v0.6c0,0.4-0.1,0.7-0.3,1c-0.2,0.3-0.6,0.4-0.9,0.4s-0.6-0.1-0.8-0.4
		c-0.2-0.2-0.3-0.6-0.3-0.9v-0.6c0-0.4,0.1-0.8,0.3-1.1c0.2-0.2,0.5-0.3,0.8-0.3s0.7,0,0.9,0.3C23.2,227.3,23.3,227.6,23.3,228z
		 M22,220.2l-0.9-0.6h-0.3l-6.2,10c-0.1,0.1-0.1,0.3,0,0.4l0.9,0.6h0.4l6.2-10C22.2,220.4,22.2,220.2,22,220.2z"/>
	<path class="st3" d="M248,228.5c-2.9,0.9-5.9,1.5-8.9,1.6c-5.1,0-10.2-1-14.9-3c-6-2.5-9.5-6-14.2-10.4s-8-7.7-11.2-14.1
		c-1.8-3.8-3-7.9-3.7-12c-0.8-2.2-2.4-2.6-2.3,0s0.4,4.3,0,4.5s-2.4-2.7-5.2-8.9c-0.7-1.6-2.2-0.8-1.5,0.7c1.9,5.4,2.4,7.3,2.2,7.4
		s-1.2-1.6-3.7-6.7c-0.7-0.7-2.3,0-1.6,1.5c2,4.2,2.7,6.4,2.3,6.7s-2-1.2-4.5-4.5c-0.7-0.7-2.2,0-0.7,2.3c0.9,1.8,1.8,3.5,2.9,5.2
		c2.3,3.5,4,5.1,9,11.2c1.9,2.3,1.7,2.1,3,3.8c3.8,4.8,8,9.3,12.6,13.4c4,3.6,8.5,6.7,13.4,9c10.1,4.5,20.1,4,26.8,2.9
		C248,235.5,248,232,248,228.5L248,228.5z"/>
	<path class="st13" d="M248,243.1v-13.2l3.8-2.9l8.9-6.3c0.9-0.3,1.8-0.6,2.7-0.7c8-0.7,10.5,8.1,6.1,15.5
		C266,240.1,259,243.8,248,243.1L248,243.1z"/>
	<path class="st2" d="M248.1,241.8v-13.2l3.7-2.9l8.9-6.3c0.9-0.3,1.8-0.6,2.7-0.7c8-0.7,10.5,8.2,6.1,15.5
		C266,238.9,259.1,242.5,248.1,241.8L248.1,241.8z"/>
	<path class="st4" d="M263.8,260l10,7.9l-10,8l-10-8L263.8,260 M238.2,260l10.1,7.9l-10,8h-0.1l-10-8L238.2,260 M212.7,260l10,8
		l-10,7.9l-10-7.9L212.7,260 M289.8,260l10.1,8l-10.1,8l-10-8L289.8,260 M238.2,280.6h0.1l9.9,8l-10,7.9l-10-7.9L238.2,280.6
		 M263.8,280.6L263.8,280.6l10,8l-10,7.9l-10-7.9L263.8,280.6 M212.7,280.6L212.7,280.6l10,8l-10,8l-10-8L212.7,280.6 M289.8,280.6
		L289.8,280.6l10,7.9l-10,8l-10-8l10-8 M238.2,301.1L238.2,301.1l10,8l-10,7.1l-4.6-3.3l-5.4-3.8L238.2,301.1 M263.8,301.1
		L263.8,301.1l9.9,8l-7.3,5.3l-2.6,1.8l-10-7.1L263.8,301.1 M212.7,301.2L212.7,301.2l9.9,7.9l-5.3,3.8l-4.7,3.3l-5.6-4.1l-4.2-3.1
		L212.7,301.2 M289.8,301.2L289.8,301.2l9.9,7.9l-9.9,7.1l-6.1-4.3l-3.9-2.8L289.8,301.2 M263.8,256L251,266.3l-12.8-10.2
		l-12.7,10.2l-12.8-10.1L197.9,268l12.9,10.3l-13,10.3l13,10.3l-13,10.3l14.8,10.8l12.8-9.1l12.8,9.1l12.8-9.1l12.8,9.1l12.9-9.3
		l13.1,9.3l14.8-10.7l-12.9-10.4l13-10.3l-13-10.3l13-10.3l-14.9-11.8l-12.9,10.3L263.8,256L263.8,256z M276.8,287l-11.1-8.8
		l11.1-8.9l11.1,8.9L276.8,287z M251,286.8l-10.9-8.6l10.9-8.7l10.9,8.6L251,286.8L251,286.8z M225.4,286.8l-10.8-8.6l10.9-8.7
		l10.9,8.6L225.4,286.8L225.4,286.8z M276.8,307.7l-11.2-8.9l11.2-8.9l11.1,8.9L276.8,307.7z M251,307.5l-10.9-8.7l10.9-8.7
		l10.9,8.7L251,307.5L251,307.5z M225.4,307.5l-10.9-8.7l11-8.7l10.9,8.7L225.4,307.5z"/>
	<path class="st14" d="M301,253.1c-2.9,5.9-9.5,10.1-18.1,11.5c-11.8,1.8-24.5-1.7-32.6-9.2h-1.2c-27,17.7-41.5,8.3-50-0.5l-1.2,0.9
		c7.2,7.4,15.1,11,23.8,11s17.6-3.3,27.9-10c7,6.2,17.1,9.7,27,9.7c2.2,0,4.3-0.2,6.5-0.5c9.1-1.4,16.2-5.9,19.3-12.3L301,253.1z"/>
	<path class="st15" d="M256,269.3c-1.3-1.1-2.4-2.4-3.4-3.8c-1.8-2.8-2.9-6-3.2-9.4c-0.2,3.4-1.3,6.6-3.2,9.4
		c-1,1.4-2.1,2.7-3.4,3.8c-0.6,0.5-3.6,3-3.6,6.8s5.1,8.9,10.2,8.9s10.1-4,10.1-8.9S256.6,269.8,256,269.3z M307.1,269.3
		c-1.3-1.1-2.5-2.4-3.5-3.8c-1.9-2.8-2.9-6-3.1-9.4c-0.3,3.3-1.4,6.6-3.2,9.4c-1,1.4-2.1,2.6-3.4,3.8c-0.6,0.5-3.7,3-3.7,6.8
		s5.2,8.9,10.2,8.9s10.1-4,10.2-8.9S307.7,269.8,307.1,269.3z M205.9,269.3c-1.3-1.1-2.4-2.4-3.4-3.8c-1.9-2.8-3-6-3.2-9.4
		c-0.2,3.4-1.3,6.6-3.2,9.4c-1,1.4-2.1,2.7-3.4,3.8c-0.6,0.5-3.7,3-3.7,6.8s5.2,8.9,10.2,8.9s10.2-4,10.2-8.9
		S206.5,269.8,205.9,269.3L205.9,269.3z"/>
	<path class="st11" d="M156.3,278.7L156.3,278.7l-5.1-4.4c-1-0.7-1.3-0.8-0.7-2.3l2.2-6h-0.2l-6.4-1.3c-0.8-0.1-1.4-0.7-1.5-1.5
		l-1.3-6.7V256h-0.1l-6.3,2.5c-0.8,0.3-1.6,0-2.1-0.6l-4.4-5.2h-0.3l-4.5,5.2c-0.6,0.7-1.5,1-2.4,0.7l-6-2.1H117l-1.3,6.5
		c-0.2,0.8-0.9,1.5-1.7,1.7l-6.3,1.1h-0.2v0.2l2.2,6c0.3,0.9,0.1,1.9-0.6,2.5l-4.9,4.1v0.3l5.2,4.5c0.8,0.5,1.2,1.5,0.7,2.4L108,292
		h0.1l6.5,1.2c1.1,0.2,1.4,0.7,1.7,1.7l1.1,6.3v0.2h0.2l6.2-2.2c0.8-0.3,1.8-0.1,2.4,0.6l4.2,4.9h0.3l4.3-5.1
		c0.5-0.8,1.5-1.1,2.4-0.7l6.1,2.2h0.1V301l1.2-6.4c0.3-0.9,0.5-1.5,1.7-1.8l6.3-1.1h0.2v-0.2l-2.2-6.1c-0.4-0.9-0.1-1.9,0.6-2.5
		L156.3,278.7z"/>
	<path class="st0" d="M127.6,277.8c0.7-0.8,1.1-1.9,1.1-3v-0.9c0.2-2.1-1.4-3.9-3.5-4.1c-0.2,0-0.4,0-0.6,0c-1.1,0-2.1,0.4-2.9,1.1
		c-0.8,0.8-0.9,2.8-0.9,3v0.9c-0.1,1.1,0.3,2.2,1.1,2.9c0.7,0.8,1.7,1.3,2.8,1.2C125.8,278.9,126.8,278.5,127.6,277.8z M126.4,274.6
		c0,0.5-0.2,1.1-0.5,1.5s-0.7,0.6-1.2,0.5c-0.5,0-0.9-0.2-1.2-0.5c-0.3-0.4-0.5-0.8-0.4-1.3v-1c0-0.5,0.2-1,0.5-1.4
		c0.2-0.4,0.8-0.4,1.1-0.4c0.5-0.1,0.9,0.1,1.2,0.5c0.3,0.3,0.5,0.8,0.5,1.3V274.6z M138.3,280c-1.7-1.5-4.1-1.5-5.8,0
		c-0.8,0.8-0.9,2.8-1,3v0.9c-0.1,1.1,0.3,2.1,1.1,2.9c0.7,0.8,1.8,1.3,2.9,1.2c1.1,0,2.1-0.4,2.8-1.2c0.8-0.7,1.2-1.8,1.1-2.9V283
		C139.5,281.9,139.1,280.8,138.3,280z M137.1,283v0.9c0,0.5-0.1,1-0.4,1.4c-0.3,0.3-0.7,0.5-1.2,0.5c-0.5,0.1-0.9-0.1-1.2-0.5
		c-0.4-0.3-0.5-0.6-0.5-1.3v-0.9c0-0.5,0.2-1,0.5-1.4s0.7-0.6,1.2-0.5c0.5,0,0.9,0.2,1.2,0.5C137,282.1,137.2,282.5,137.1,283z
		 M135.3,272l-1.3-0.9c-0.1-0.1-0.4,0-0.5,0.1l-8.7,14.1c-0.1,0.2-0.1,0.4,0.1,0.5l1.3,0.9h0.2l0.3-0.2l8.7-14
		C135.5,272.3,135.5,272.1,135.3,272z"/>
	<path class="st11" d="M120.2,105.3l0.2-0.2l-0.2-0.2l-6.2-5.4c-1.3-0.8-1.6-1-0.9-2.8l2.7-7.5V89h-0.2l-8.1-1.6
		c-1.4-0.4-1.6-0.9-1.8-1.8l-1.6-8.4V77H104l-7.9,3c-0.9,0.4-1.9,0.1-2.5-0.7L88,72.9l-0.2-0.2v0.2l-5.6,6.4c-0.7,0.9-1.9,1.2-3,0.9
		l-7.6-2.7h-0.1v0.2l-1.6,8.1c-0.3,1.1-1.1,1.9-2.2,2.1l-7.9,1.4h-0.1v0.2l2.5,7.5c0.5,1.1,0.2,2.3-0.7,3.1l-6.1,5.2v0.3l6.5,5.6
		c1,0.6,1.4,1.9,0.9,3l-2.7,7.6h0.2l8,1.5c1.5,0.3,1.8,0.9,2.2,2.1l1.4,7.9v0.2h0.2l7.7-2.7c1-0.5,2.3-0.2,3,0.7l5.2,6.1l0.2,0.2
		l0.2-0.2l5.3-6.3c0.7-1,2-1.3,3.1-0.9l7.5,2.7h0.2V133l1.4-8c0.2-1.1,1.1-2,2.2-2.2l7.8-1.4h0.2v-0.2l-2.7-7.7
		c-0.5-1.1-0.2-2.3,0.8-3L120.2,105.3z"/>
	<path class="st0" d="M84.5,104.1c0.9-1,1.5-2.3,1.4-3.7v-1.1c0.1-1.4-0.4-2.7-1.4-3.7s-2.3-1.5-3.7-1.4c-1.3-0.1-2.7,0.4-3.6,1.4
		S76.1,99,76,99.3v1.1c-0.1,1.3,0.4,2.7,1.4,3.6c0.9,1.1,2.2,1.6,3.6,1.5C82.3,105.5,83.6,105,84.5,104.1z M83,100.2
		c0,0.6-0.2,1.3-0.6,1.8c-0.4,0.4-0.9,0.6-1.4,0.6c-0.6,0-1.1-0.2-1.5-0.6s-0.6-1-0.6-1.6v-1.3c0-0.6,0.2-1.2,0.6-1.7
		c0.3-0.5,1-0.5,1.5-0.5s1.1,0,1.4,0.6c0.4,0.4,0.6,1,0.6,1.6V100.2z M97.9,106.9c-1-1-2.3-1.5-3.7-1.4c-1.3-0.1-2.6,0.4-3.5,1.4
		c-1,1-1.2,3.4-1.3,3.7v1.1c-0.1,1.3,0.4,2.7,1.4,3.6c0.9,1.1,2.2,1.6,3.6,1.5c2.7,0.1,4.8-2,4.9-4.7c0-0.1,0-0.3,0-0.4v-1.1
		C99.4,109.2,98.9,107.9,97.9,106.9z M96.4,110.6v1.1c0,0.6-0.2,1.3-0.6,1.8c-0.4,0.4-0.9,0.6-1.4,0.6c-1.2,0-2.1-0.9-2.1-2.1
		c0-0.1,0-0.1,0-0.2v-1c-0.1-0.7,0.1-1.4,0.6-1.9c0.4-0.4,0.9-0.6,1.5-0.6c0.5,0,1.1,0.2,1.4,0.6C96.3,109.3,96.5,110,96.4,110.6z"
		/>
	<path class="st0" d="M94.2,96.9l-1.6-1.1c-0.2-0.2-0.5-0.1-0.7,0.1L81,113.5c-0.1,0.2,0,0.4,0.1,0.6l1.7,1h0.3l0.3-0.2l10.9-17.4
		C94.4,97.3,94.4,97,94.2,96.9z"/>
	<path class="st11" d="M403.6,161.2h0.2l-0.2-0.2l-5.2-4.4c-1-0.8-1.3-0.9-0.7-2.4l2.2-6.2h-0.1l-6.7-1.4c-1.2-0.3-1.3-0.7-1.5-1.5
		l-1.3-6.9h-0.1l-6.5,2.5c-0.8,0.3-1.6,0-2.1-0.6l-4.6-5.3v-0.2l-0.2,0.2l-4.6,5.3c-0.6,0.8-1.6,1-2.5,0.7l-6.2-2.2h-0.1l-1.3,6.7
		c-0.2,0.9-0.9,1.6-1.8,1.8l-6.5,1.1h-0.2v0.2l2.2,6.2c0.4,0.9,0.2,1.8-0.5,2.5l-5.1,4.3v0.3l5.4,4.6c0.9,0.5,1.2,1.6,0.7,2.5
		l-2.2,6.2h0.1l6.7,1.2c1.2,0.3,1.4,0.8,1.7,1.8l1.2,6.5h0.2l6.3-2.2c0.9-0.4,1.9-0.1,2.5,0.6l4.3,5l0.2,0.2v-0.2l4.4-5.1
		c0.6-0.8,1.7-1.2,2.6-0.8l6.2,2.2h0.1l1.2-6.6c0.2-0.9,0.9-1.6,1.8-1.8l6.5-1.2h0.1v-0.2L398,168c-0.4-0.9-0.1-1.9,0.6-2.5
		L403.6,161.2z"/>
	<path class="st0" d="M374.1,160.2c0.8-0.8,1.2-2,1.1-3.1v-0.8c0.2-2.1-1.3-4-3.4-4.2c-0.3,0-0.6,0-0.8,0c-1.1-0.1-2.1,0.3-2.9,1.1
		s-0.9,2.8-1,3.1v0.8c-0.1,1.1,0.3,2.3,1.1,3.1c0.8,0.8,1.9,1.2,3,1.1C372.3,161.4,373.3,161,374.1,160.2L374.1,160.2z M372.9,157
		c0,0.5-0.2,1.1-0.5,1.5c-0.7,0.7-1.7,0.7-2.4,0c-0.4-0.4-0.6-0.9-0.5-1.4v-1c0-0.5,0.2-1,0.5-1.4c0.7-0.5,1.7-0.5,2.4,0
		c0.3,0.4,0.5,0.9,0.5,1.4V157z M385.2,162.5c-0.8-0.8-2-1.2-3.1-1.1c-1.1-0.1-2.1,0.3-2.9,1.1c-0.6,0.9-1,2-1,3.1v0.9
		c0,1.1,0.4,2.2,1.1,3c0.8,0.9,1.9,1.3,3,1.2c2.2,0.1,3.9-1.6,4-3.8c0-0.1,0-0.3,0-0.4v-0.9C386.3,164.5,385.9,163.4,385.2,162.5z
		 M384,165.6v0.9c0,0.5-0.2,1.1-0.5,1.5c-0.3,0.3-0.8,0.5-1.2,0.5c-0.5,0-0.9-0.2-1.3-0.5c-0.3-0.4-0.4-0.9-0.4-1.4v-0.9
		c-0.1-0.5,0.1-1.1,0.4-1.5c0.4-0.3,0.8-0.5,1.3-0.5s0.9,0.2,1.2,0.5C383.8,164.6,384,165.1,384,165.6z"/>
	<path class="st0" d="M382.1,154.2l-1.3-0.8c-0.2-0.2-0.4-0.1-0.5,0.1l-9.1,14.5c-0.1,0.1,0,0.3,0.2,0.4l1.3,0.9h0.3
		c0.1,0,0.1-0.1,0.2-0.2l9-14.5C382.3,154.6,382.3,154.4,382.1,154.2z"/>
</g>
</svg>
