<svg id="visual" viewBox="0 0 1100 170" width="1100" height="200" xmlns="http://www.w3.org/2000/svg" xmlns:xlink="http://www.w3.org/1999/xlink" version="1.1"><path d="M1083 170L999 170L999 159L1023 159L1023 147L1002 147L1002 136L1081 136L1081 125L1005 125L1005 113L1011 113L1011 102L1057 102L1057 91L957 91L957 79L1079 79L1079 68L937 68L937 57L932 57L932 45L1049 45L1049 34L947 34L947 23L1004 23L1004 11L941 11L941 0L1400 0L1400 11L1400 11L1400 23L1400 23L1400 34L1400 34L1400 45L1400 45L1400 57L1400 57L1400 68L1400 68L1400 79L1400 79L1400 91L1400 91L1400 102L1400 102L1400 113L1400 113L1400 125L1400 125L1400 136L1400 136L1400 147L1400 147L1400 159L1400 159L1400 170L1400 170Z" fill="#8f43ee"></path><path d="M1067 170L1067 170L1067 159L1030 159L1030 147L1150 147L1150 136L1154 136L1154 125L1097 125L1097 113L1159 113L1159 102L1084 102L1084 91L1067 91L1067 79L1089 79L1089 68L1112 68L1112 57L1163 57L1163 45L1060 45L1060 34L1027 34L1027 23L1136 23L1136 11L1095 11L1095 0L1400 0L1400 11L1400 11L1400 23L1400 23L1400 34L1400 34L1400 45L1400 45L1400 57L1400 57L1400 68L1400 68L1400 79L1400 79L1400 91L1400 91L1400 102L1400 102L1400 113L1400 113L1400 125L1400 125L1400 136L1400 136L1400 147L1400 147L1400 159L1400 159L1400 170L1400 170Z" fill="#8f43ee"></path><path d="M1165 170L1175 170L1175 159L1228 159L1228 147L1174 147L1174 136L1168 136L1168 125L1131 125L1131 113L1183 113L1183 102L1213 102L1213 91L1175 91L1175 79L1172 79L1172 68L1223 68L1223 57L1214 57L1214 45L1224 45L1224 34L1252 34L1252 23L1165 23L1165 11L1183 11L1183 0L1400 0L1400 11L1400 11L1400 23L1400 23L1400 34L1400 34L1400 45L1400 45L1400 57L1400 57L1400 68L1400 68L1400 79L1400 79L1400 91L1400 91L1400 102L1400 102L1400 113L1400 113L1400 125L1400 125L1400 136L1400 136L1400 147L1400 147L1400 159L1400 159L1400 170L1400 170Z" fill="#e3211e"></path><path d="M1288 170L1258 170L1258 159L1249 159L1249 147L1246 147L1246 136L1340 136L1340 125L1237 125L1237 113L1238 113L1238 102L1251 102L1251 91L1288 91L1288 79L1336 79L1336 68L1256 68L1256 57L1242 57L1242 45L1317 45L1317 34L1332 34L1332 23L1318 23L1318 11L1263 11L1263 0L1400 0L1400 11L1400 11L1400 23L1400 23L1400 34L1400 34L1400 45L1400 45L1400 57L1400 57L1400 68L1400 68L1400 79L1400 79L1400 91L1400 91L1400 102L1400 102L1400 113L1400 113L1400 125L1400 125L1400 136L1400 136L1400 147L1400 147L1400 159L1400 159L1400 170L1400 170Z" fill="#e10000"></path></svg>