<svg xmlns="http://www.w3.org/2000/svg" viewBox="0 0 497.9 97.69"><defs><style>.cls-1{fill:#facf39;}.cls-2{fill:#fff;}</style></defs><g id="Layer_2" data-name="Layer 2"><g id="Layer_1-2" data-name="Layer 1"><path class="cls-1" d="M97,24.85a3.41,3.41,0,0,0-3.41-3.4H86.76a3.4,3.4,0,0,0,0,6.8h6.81A3.41,3.41,0,0,0,97,24.85Zm-16.41,66H67.72a3.41,3.41,0,1,0,0,6.81H80.57a3.41,3.41,0,0,0,0-6.81ZM116,69.47a3.41,3.41,0,0,0-3.41,3.41V85.73a3.41,3.41,0,0,0,6.81,0V72.88A3.41,3.41,0,0,0,116,69.47ZM94.7,97.69h12.85a3.41,3.41,0,0,0,0-6.81H94.7a3.41,3.41,0,0,0,0,6.81Zm14.53-76.24h-2a3.4,3.4,0,1,0,0,6.8h2a3.43,3.43,0,0,1,3.4,3.51A3.36,3.36,0,0,0,116,35.11a3.44,3.44,0,0,0,3.4-3.45A10.22,10.22,0,0,0,109.23,21.45ZM40.74,90.88a3.41,3.41,0,1,0,0,6.81H53.59a3.41,3.41,0,0,0,0-6.81ZM116,42.49a3.41,3.41,0,0,0-3.41,3.41V58.75a3.41,3.41,0,0,0,6.81,0V45.9A3.41,3.41,0,0,0,116,42.49Zm-89.18,45a3.41,3.41,0,0,0-6.81,0,10.18,10.18,0,0,0,4.7,8.6,3.4,3.4,0,0,0,4.7-1h0a3.42,3.42,0,0,0-1-4.71h0A3.37,3.37,0,0,1,26.86,87.48Zm-1-30A9.53,9.53,0,1,0,16.31,67,9.53,9.53,0,0,0,25.83,57.48Zm-15.17,0a5.65,5.65,0,1,1,5.65,5.65A5.65,5.65,0,0,1,10.66,57.48Z"/><path class="cls-1" d="M32.61,57.48a16.53,16.53,0,0,0-.2-2.45l4.27-3.45.09.11.57-.48c3.59,3.63,7.41,7.12,11.41,10.68C58.38,70.46,66.89,74.55,74,74.55h0c5.09,0,8.07-2,9.4-3.29,3-3,4.38-4.21,4.44-4.27l1.44-1.52L54.38,37.53,89.32,9.6,87.88,8.07c-.06-.06-1.4-1.48-4.44-4.52A12.94,12.94,0,0,0,74,0C66.89,0,58.38,4.35,48.75,12.92q-5.09,4.53-9.91,9.33l0,0c-.44.44-.88.9-1.33,1.37l-.24.24L32.42,20a16.72,16.72,0,0,0,.19-2.37,16.31,16.31,0,1,0-16.3,16.3,16.15,16.15,0,0,0,5.14-.84c.71,1,1.84,2.48,3.46,4.47L23.55,39.1l.07.06c-.74.94-1.46,1.89-2.17,2.86a16.06,16.06,0,0,0-5.14-.85,16.31,16.31,0,1,0,16.3,16.31Zm51,8.26c-.7.71-1.66,1.44-2.9,2.68-.9.9-3,2-6.66,2h0c-4.25,0-11.63-1.7-22.72-11.57-3.86-3.44-7.56-6.72-11-10.19q5.41-4.47,10.94-8.83ZM40.07,26.5Q45.53,21,51.32,15.81C62.41,5.94,69.8,3.87,74,3.87a9.13,9.13,0,0,1,6.66,2.4c1.24,1.24,2.2,2.2,2.9,2.92L49.22,36.64l0-.06q-6.6,5.2-13,10.6l-4.56,3.64c-.5-.72-1-1.43-1.55-2.13a16.52,16.52,0,0,0-3.71-4.07c-.41-.33-.83-.64-1.27-.93,1-1.29,1.94-2.56,3-3.8C30.46,37.05,35.54,31.26,40.07,26.5Zm-8.5-2.25,3,2.43q-3.6,3.9-7.1,7.89Q26.24,33,25,31.39c.39-.26.82-.58,1.27-.94A16.35,16.35,0,0,0,30,26.38C30.63,25.58,31.15,24.85,31.57,24.25Zm-7.68,3.18A12.41,12.41,0,0,1,21.29,29l-1.74.61a12.23,12.23,0,0,1-3.24.44,12.47,12.47,0,1,1,10.54-5.87c-.36.47-.72.93-1.09,1.39A12.31,12.31,0,0,1,23.89,27.43Zm-20,30.05a12.41,12.41,0,0,1,15.72-12l1.64.57a12.32,12.32,0,0,1,2.9,1.77,11.8,11.8,0,0,1,1.62,1.67l1,1.32A12.43,12.43,0,1,1,3.88,57.48Z"/><path class="cls-1" d="M16.31,8.07a9.53,9.53,0,1,0,9.52,9.53A9.55,9.55,0,0,0,16.31,8.07Zm0,15.18A5.65,5.65,0,1,1,22,17.6,5.66,5.66,0,0,1,16.31,23.25Zm21.47,17a3.23,3.23,0,1,0-3.14-3.13A3.23,3.23,0,0,0,37.78,40.2Zm0-5.16A1.94,1.94,0,1,1,35.84,37,1.93,1.93,0,0,1,37.78,35Z"/><path class="cls-2" d="M146.6,84.31V81.62a18.94,18.94,0,0,0,5.07-13V30.54a18.92,18.92,0,0,0-5.07-13V14.74h30.31c11.23,0,21,8.65,21.57,19.68a21,21,0,0,1-20.87,22.75H162.4V68.6a19.13,19.13,0,0,0,5.27,13v2.69ZM162.4,53.8h11.73a17.94,17.94,0,1,0,0-35.88H162.4V53.8Zm41.84,30.51V81.42l3.88-4.07A4.82,4.82,0,0,0,209.21,74V25.08a5.24,5.24,0,0,0-1.09-3.28l-3.88-4.28V14.74h30.81a20.89,20.89,0,0,1,21.16,20.67c0,11.43-8.84,20.27-19.87,21.27l4.17,3.78c12.52,12.22,30.31,19.17,48.8,19.17,12.32,0,26.83-2.38,33.09-13.11l3.18-1.89,5.07,8c-12.62,7.15-26.54,11.63-42,11.63-19.58,0-39.45-6.76-52.67-18.89l-9.44-8.64H220V76l5.17,5.46v2.89Zm59.82-42.74a27.78,27.78,0,0,1,55.56,0c0,14.91-12.53,27.13-27.73,27.13-15.5,0-27.83-12.22-27.83-27.13Zm31.51,22.86a10.91,10.91,0,0,0,3.08-.4c6.86-1.59,11.13-8.74,11.13-17.39,0-15.2-11.23-27.82-21.57-27.82-8.74,0-13.41,7.65-13.41,17,0,15.1,10.53,28.62,20.77,28.62ZM220,53.7h11.73a18.15,18.15,0,0,0,18.08-18.09c0-9.74-8.24-17.59-18.08-17.59H220V53.7ZM335.42,84.31V81.62l1.69-1.69a9.32,9.32,0,0,0,2.78-6.75V26.87a10.1,10.1,0,0,0-2.58-6.37l-2.49-2.88V14.74h15.8l24.75,57.54,24.34-57.54H416v2.88l-2.68,2.89A9.45,9.45,0,0,0,410.74,27V72.48a8.75,8.75,0,0,0,2.49,6.36l2.58,2.78v2.69H394.75V81.62l2.58-2.78a9.58,9.58,0,0,0,2.39-6.36V23.78l-22.66,53H366.32L344.06,25V74.67a10,10,0,0,0,3.08,7v2.69Zm87.05-34.79c0-20.37,16.9-36.07,37.67-36.07,21,0,37.76,15.7,37.76,36.07S481.1,85.6,460.14,85.6c-20.77,0-37.67-15.6-37.67-36.08ZM437.58,55C443,73.08,456.76,84.31,470,81.22,483.39,78.14,489.75,62,484.38,44s-20.67-28.82-34-25.74S432.11,37.1,437.58,55Z"/></g></g></svg>