<svg id="visual" viewBox="0 0 1400 400" width="1400" height="400" xmlns="http://www.w3.org/2000/svg" xmlns:xlink="http://www.w3.org/1999/xlink" version="1.1"><path d="M0 288L18 287.3C36 286.7 72 285.3 107.8 285.8C143.7 286.3 179.3 288.7 215.2 293.7C251 298.7 287 306.3 323 306C359 305.7 395 297.3 430.8 299.2C466.7 301 502.3 313 538.2 313C574 313 610 301 646 298.2C682 295.3 718 301.7 754 302.3C790 303 826 298 861.8 296C897.7 294 933.3 295 969.2 292.7C1005 290.3 1041 284.7 1077 282.8C1113 281 1149 283 1184.8 289.3C1220.7 295.7 1256.3 306.3 1292.2 311.5C1328 316.7 1364 316.3 1382 316.2L1400 316L1400 401L1382 401C1364 401 1328 401 1292.2 401C1256.3 401 1220.7 401 1184.8 401C1149 401 1113 401 1077 401C1041 401 1005 401 969.2 401C933.3 401 897.7 401 861.8 401C826 401 790 401 754 401C718 401 682 401 646 401C610 401 574 401 538.2 401C502.3 401 466.7 401 430.8 401C395 401 359 401 323 401C287 401 251 401 215.2 401C179.3 401 143.7 401 107.8 401C72 401 36 401 18 401L0 401Z" fill="#92c0c4"></path><path d="M0 320L18 324.8C36 329.7 72 339.3 107.8 342.7C143.7 346 179.3 343 215.2 341.5C251 340 287 340 323 344.5C359 349 395 358 430.8 356.2C466.7 354.3 502.3 341.7 538.2 336.5C574 331.3 610 333.7 646 337.3C682 341 718 346 754 351.2C790 356.3 826 361.7 861.8 358.8C897.7 356 933.3 345 969.2 337.8C1005 330.7 1041 327.3 1077 328C1113 328.7 1149 333.3 1184.8 333.7C1220.7 334 1256.3 330 1292.2 331.3C1328 332.7 1364 339.3 1382 342.7L1400 346L1400 401L1382 401C1364 401 1328 401 1292.2 401C1256.3 401 1220.7 401 1184.8 401C1149 401 1113 401 1077 401C1041 401 1005 401 969.2 401C933.3 401 897.7 401 861.8 401C826 401 790 401 754 401C718 401 682 401 646 401C610 401 574 401 538.2 401C502.3 401 466.7 401 430.8 401C395 401 359 401 323 401C287 401 251 401 215.2 401C179.3 401 143.7 401 107.8 401C72 401 36 401 18 401L0 401Z" fill=""></path></svg>